black-display-narrow vv(152.6--50.1)-(80.5-100.0)-10.0-0.0-(0.0-0.0).ufo
<glyph name="be-cy.sc" format="1">
  <advance width="1164"/>
  <outline>
    <contour>
      <point x="542" y="-144" type="move" name="mark0"/>
    </contour>
    <contour>
      <point x="514" y="772" type="curve"/>
      <point x="514" y="1235" type="line"/>
      <point x="757" y="1227" type="line"/>
      <point x="805" y="996" type="line"/>
      <point x="998" y="996" type="line"/>
      <point x="979" y="1292" type="line"/>
      <point x="48" y="1292" type="line"/>
      <point x="48" y="1236" type="line"/>
      <point x="163" y="1222" type="line"/>
      <point x="163" y="71" type="line"/>
      <point x="49" y="57" type="line"/>
      <point x="49" y="0" type="line"/>
      <point x="349" y="0" type="line" smooth="yes"/>
      <point x="416" y="0"/>
      <point x="677" y="-14"/>
      <point x="714" y="-14" type="curve" smooth="yes"/>
      <point x="952" y="-14"/>
      <point x="1119" y="128"/>
      <point x="1119" y="414" type="curve" smooth="yes"/>
      <point x="1119" y="646"/>
      <point x="989" y="796"/>
      <point x="703" y="796" type="curve" smooth="yes"/>
      <point x="690" y="796"/>
      <point x="518" y="783"/>
    </contour>
    <contour>
      <point x="514" y="71" type="curve"/>
      <point x="514" y="698" type="line"/>
      <point x="513" y="707"/>
      <point x="590" y="711"/>
      <point x="600" y="711" type="curve" smooth="yes"/>
      <point x="717" y="711"/>
      <point x="761" y="615"/>
      <point x="761" y="405" type="curve" smooth="yes"/>
      <point x="761" y="158"/>
      <point x="741" y="55"/>
      <point x="580" y="55" type="curve" smooth="yes"/>
      <point x="541" y="55"/>
      <point x="521" y="65"/>
    </contour>
  </outline>
</glyph>
<glyph name="che-cy.sc" format="1">
  <advance width="1236"/>
  <outline>
    <contour>
      <point x="608" y="1264" type="move" name="top"/>
    </contour>
    <contour>
      <point x="620" y="648" type="move" name="center"/>
    </contour>
    <contour>
      <point x="1197" y="0" type="move" name="bottomright"/>
    </contour>
    <contour>
      <point x="730" y="597" type="curve"/>
      <point x="730" y="73" type="line"/>
      <point x="561" y="57" type="line"/>
      <point x="561" y="0" type="line"/>
      <point x="1189" y="0" type="line"/>
      <point x="1189" y="58" type="line"/>
      <point x="1082" y="73" type="line"/>
      <point x="1082" y="1222" type="line"/>
      <point x="1189" y="1236" type="line"/>
      <point x="1189" y="1292" type="line"/>
      <point x="623" y="1292" type="line"/>
      <point x="623" y="1236" type="line"/>
      <point x="730" y="1221" type="line"/>
      <point x="730" y="658" type="line"/>
      <point x="706" y="631"/>
      <point x="664" y="603"/>
      <point x="599" y="603" type="curve" smooth="yes"/>
      <point x="489" y="603"/>
      <point x="468" y="657"/>
      <point x="468" y="966" type="curve" smooth="yes"/>
      <point x="468" y="1218" type="line"/>
      <point x="552" y="1236" type="line"/>
      <point x="552" y="1292" type="line"/>
      <point x="34" y="1292" type="line"/>
      <point x="34" y="1236" type="line"/>
      <point x="115" y="1219" type="line"/>
      <point x="115" y="922" type="line" smooth="yes"/>
      <point x="115" y="670"/>
      <point x="218" y="523"/>
      <point x="479" y="523" type="curve" smooth="yes"/>
      <point x="562" y="523"/>
      <point x="660" y="551"/>
    </contour>
  </outline>
</glyph>
<glyph name="chedescender-cy.sc" format="1">
  <advance width="1273"/>
  <outline>
    <contour>
      <point x="1228" y="73" type="curve"/>
      <point x="1082" y="73" type="line"/>
      <point x="1082" y="1222" type="line"/>
      <point x="1189" y="1236" type="line"/>
      <point x="1189" y="1292" type="line"/>
      <point x="623" y="1292" type="line"/>
      <point x="623" y="1236" type="line"/>
      <point x="730" y="1221" type="line"/>
      <point x="730" y="658" type="line"/>
      <point x="705" y="631"/>
      <point x="663" y="603"/>
      <point x="599" y="603" type="curve" smooth="yes"/>
      <point x="488" y="603"/>
      <point x="468" y="657"/>
      <point x="468" y="966" type="curve" smooth="yes"/>
      <point x="468" y="1218" type="line"/>
      <point x="552" y="1236" type="line"/>
      <point x="552" y="1292" type="line"/>
      <point x="34" y="1292" type="line"/>
      <point x="34" y="1236" type="line"/>
      <point x="115" y="1219" type="line"/>
      <point x="115" y="922" type="line" smooth="yes"/>
      <point x="115" y="670"/>
      <point x="217" y="523"/>
      <point x="479" y="523" type="curve" smooth="yes"/>
      <point x="561" y="523"/>
      <point x="660" y="551"/>
      <point x="730" y="597" type="curve"/>
      <point x="730" y="73" type="line"/>
      <point x="562" y="57" type="line"/>
      <point x="562" y="0" type="line"/>
      <point x="949" y="0" type="line"/>
      <point x="975" y="5"/>
      <point x="1012" y="-269"/>
      <point x="1014" y="-297" type="curve"/>
      <point x="1189" y="-297" type="line"/>
      <point x="1197" y="-129"/>
      <point x="1231" y="-63"/>
    </contour>
  </outline>
</glyph>
<glyph name="chedescenderabkhasian-cy.sc" format="1">
  <advance width="1384"/>
  <outline>
    <contour>
      <point x="1276" y="46" type="curve"/>
      <point x="1275" y="283" type="line"/>
      <point x="1046" y="280" type="line"/>
      <point x="1020" y="123" type="line"/>
      <point x="994" y="89"/>
      <point x="982" y="54"/>
      <point x="867" y="54" type="curve" smooth="yes"/>
      <point x="743" y="54"/>
      <point x="674" y="345"/>
      <point x="657" y="650" type="curve"/>
      <point x="1318" y="648" type="line"/>
      <point x="1327" y="680"/>
      <point x="1336" y="712"/>
      <point x="1336" y="790" type="curve" smooth="yes"/>
      <point x="1326" y="1104"/>
      <point x="1093" y="1306"/>
      <point x="863" y="1306" type="curve" smooth="yes"/>
      <point x="604" y="1306"/>
      <point x="350" y="1056"/>
      <point x="311" y="705" type="curve"/>
      <point x="217" y="707"/>
      <point x="245" y="764"/>
      <point x="245" y="816" type="curve" smooth="yes"/>
      <point x="245" y="851"/>
      <point x="278" y="910"/>
      <point x="292" y="925" type="curve"/>
      <point x="131" y="945" type="line"/>
      <point x="114" y="933"/>
      <point x="36" y="853"/>
      <point x="36" y="829" type="curve" smooth="yes"/>
      <point x="36" y="701"/>
      <point x="168" y="643"/>
      <point x="308" y="640" type="curve"/>
      <point x="327" y="261"/>
      <point x="532" y="-18"/>
      <point x="810" y="-20" type="curve"/>
      <point x="823" y="-53"/>
      <point x="839" y="-119"/>
      <point x="839" y="-183" type="curve" smooth="yes"/>
      <point x="839" y="-288"/>
      <point x="807" y="-309"/>
      <point x="741" y="-309" type="curve" smooth="yes"/>
      <point x="729" y="-309"/>
      <point x="697" y="-302"/>
      <point x="680" y="-293" type="curve"/>
      <point x="681" y="-372" type="line"/>
      <point x="706" y="-383"/>
      <point x="759" y="-393"/>
      <point x="788" y="-393" type="curve" smooth="yes"/>
      <point x="945" y="-393"/>
      <point x="1039" y="-353"/>
      <point x="1046" y="-243" type="curve" smooth="yes"/>
      <point x="1052" y="-156"/>
      <point x="1004" y="-55"/>
      <point x="954" y="-19" type="curve"/>
      <point x="1105" y="-9"/>
      <point x="1208" y="44"/>
    </contour>
    <contour>
      <point x="996" y="705" type="curve"/>
      <point x="653" y="705" type="line"/>
      <point x="658" y="1102"/>
      <point x="703" y="1240"/>
      <point x="828" y="1240" type="curve" smooth="yes"/>
      <point x="994" y="1240"/>
      <point x="988" y="1027"/>
      <point x="993" y="816" type="curve" smooth="yes"/>
      <point x="996" y="776"/>
      <point x="994" y="741"/>
    </contour>
  </outline>
</glyph>
<glyph name="chekhakassian-cy.sc" format="1">
  <advance width="1239"/>
  <outline>
    <contour>
      <point x="560" y="-144" type="move" name="mark0"/>
    </contour>
    <contour>
      <point x="818" y="0" type="curve"/>
      <point x="1190" y="0" type="line"/>
      <point x="1190" y="58" type="line"/>
      <point x="1082" y="73" type="line"/>
      <point x="1082" y="1222" type="line"/>
      <point x="1189" y="1236" type="line"/>
      <point x="1189" y="1292" type="line"/>
      <point x="623" y="1292" type="line"/>
      <point x="623" y="1236" type="line"/>
      <point x="730" y="1221" type="line"/>
      <point x="730" y="658" type="line"/>
      <point x="705" y="631"/>
      <point x="663" y="603"/>
      <point x="599" y="603" type="curve" smooth="yes"/>
      <point x="488" y="603"/>
      <point x="468" y="657"/>
      <point x="468" y="966" type="curve" smooth="yes"/>
      <point x="468" y="1218" type="line"/>
      <point x="552" y="1236" type="line"/>
      <point x="552" y="1292" type="line"/>
      <point x="34" y="1292" type="line"/>
      <point x="34" y="1236" type="line"/>
      <point x="115" y="1219" type="line"/>
      <point x="115" y="922" type="line" smooth="yes"/>
      <point x="115" y="670"/>
      <point x="217" y="523"/>
      <point x="479" y="523" type="curve" smooth="yes"/>
      <point x="561" y="523"/>
      <point x="660" y="551"/>
      <point x="730" y="597" type="curve"/>
      <point x="730" y="72" type="line"/>
      <point x="559" y="72" type="line"/>
      <point x="540" y="106"/>
      <point x="534" y="-318"/>
      <point x="534" y="-297" type="curve"/>
      <point x="718" y="-297" type="line"/>
      <point x="726" y="-259"/>
      <point x="784" y="16"/>
    </contour>
  </outline>
</glyph>
<glyph name="cheverticalstroke-cy.sc" format="1">
  <advance width="1328"/>
  <outline>
    <contour>
      <point x="648" y="-144" type="move" name="mark0"/>
    </contour>
    <contour>
      <point x="819" y="591" type="curve"/>
      <point x="819" y="69" type="line"/>
      <point x="636" y="57" type="line"/>
      <point x="636" y="0" type="line"/>
      <point x="1281" y="0" type="line"/>
      <point x="1281" y="58" type="line"/>
      <point x="1170" y="73" type="line"/>
      <point x="1170" y="1222" type="line"/>
      <point x="1281" y="1236" type="line"/>
      <point x="1281" y="1292" type="line"/>
      <point x="693" y="1292" type="line"/>
      <point x="693" y="1236" type="line"/>
      <point x="819" y="1220" type="line"/>
      <point x="819" y="658" type="line"/>
      <point x="804" y="633"/>
      <point x="765" y="608"/>
      <point x="707" y="602" type="curve"/>
      <point x="707" y="871" type="line"/>
      <point x="573" y="871" type="line"/>
      <point x="573" y="603" type="line"/>
      <point x="466" y="606"/>
      <point x="468" y="661"/>
      <point x="468" y="966" type="curve" smooth="yes"/>
      <point x="468" y="1218" type="line"/>
      <point x="581" y="1237" type="line"/>
      <point x="581" y="1292" type="line"/>
      <point x="38" y="1292" type="line"/>
      <point x="38" y="1237" type="line"/>
      <point x="116" y="1216" type="line"/>
      <point x="116" y="922" type="line" smooth="yes"/>
      <point x="116" y="659"/>
      <point x="240" y="523"/>
      <point x="518" y="523" type="curve" smooth="yes"/>
      <point x="535" y="523"/>
      <point x="554" y="523"/>
      <point x="573" y="525" type="curve"/>
      <point x="573" y="319" type="line"/>
      <point x="707" y="319" type="line"/>
      <point x="707" y="524" type="line"/>
      <point x="749" y="535"/>
      <point x="791" y="553"/>
    </contour>
  </outline>
</glyph>
<glyph name="de-cy.sc" format="1">
  <advance width="1278"/>
  <outline>
    <contour>
      <point x="1219" y="73" type="curve"/>
      <point x="1063" y="73" type="line"/>
      <point x="1063" y="1222" type="line"/>
      <point x="1213" y="1236" type="line"/>
      <point x="1213" y="1292" type="line"/>
      <point x="166" y="1292" type="line"/>
      <point x="166" y="1236" type="line"/>
      <point x="329" y="1222" type="line"/>
      <point x="329" y="1078" type="line" smooth="yes"/>
      <point x="329" y="430"/>
      <point x="222" y="125"/>
      <point x="157" y="73" type="curve"/>
      <point x="47" y="73" type="line"/>
      <point x="35" y="114"/>
      <point x="41" y="-314"/>
      <point x="37" y="-295" type="curve"/>
      <point x="222" y="-295" type="line"/>
      <point x="231" y="-273"/>
      <point x="278" y="10"/>
      <point x="315" y="0" type="curve"/>
      <point x="938" y="0" type="line"/>
      <point x="964" y="-3"/>
      <point x="1018" y="-280"/>
      <point x="1020" y="-297" type="curve"/>
      <point x="1197" y="-297" type="line"/>
      <point x="1206" y="-301"/>
      <point x="1219" y="124"/>
    </contour>
    <contour>
      <point x="479" y="1068" type="curve"/>
      <point x="479" y="1218" type="line"/>
      <point x="712" y="1218" type="line"/>
      <point x="714" y="73" type="line"/>
      <point x="359" y="73" type="line"/>
      <point x="409" y="135"/>
      <point x="479" y="500"/>
    </contour>
  </outline>
</glyph>
<glyph name="dje-cy.sc" format="1">
  <advance width="1473"/>
  <outline>
    <contour>
      <point x="538" y="-144" type="move" name="mark0"/>
    </contour>
    <contour>
      <point x="771" y="667" type="curve"/>
      <point x="771" y="1234" type="line"/>
      <point x="971" y="1221" type="line"/>
      <point x="1031" y="891" type="line"/>
      <point x="1212" y="891" type="line"/>
      <point x="1180" y="1292" type="line"/>
      <point x="62" y="1292" type="line"/>
      <point x="39" y="891" type="line"/>
      <point x="216" y="891" type="line"/>
      <point x="268" y="1221" type="line"/>
      <point x="420" y="1234" type="line"/>
      <point x="420" y="72" type="line"/>
      <point x="193" y="57" type="line"/>
      <point x="193" y="0" type="line"/>
      <point x="990" y="0" type="line"/>
      <point x="990" y="57" type="line"/>
      <point x="771" y="69" type="line"/>
      <point x="771" y="614" type="line"/>
      <point x="791" y="655"/>
      <point x="854" y="665"/>
      <point x="932" y="665" type="curve" smooth="yes"/>
      <point x="1040" y="665"/>
      <point x="1084" y="536"/>
      <point x="1084" y="307" type="curve" smooth="yes"/>
      <point x="1084" y="-62"/>
      <point x="1023" y="-265"/>
      <point x="918" y="-265" type="curve" smooth="yes"/>
      <point x="819" y="-265"/>
      <point x="796" y="-266"/>
      <point x="777" y="-266" type="curve"/>
      <point x="794" y="-331" type="line"/>
      <point x="821" y="-340"/>
      <point x="874" y="-338"/>
      <point x="972" y="-338" type="curve" smooth="yes"/>
      <point x="1240" y="-338"/>
      <point x="1444" y="-41"/>
      <point x="1444" y="309" type="curve" smooth="yes"/>
      <point x="1444" y="518"/>
      <point x="1249" y="737"/>
      <point x="1014" y="737" type="curve" smooth="yes"/>
      <point x="923" y="737"/>
      <point x="803" y="721"/>
    </contour>
  </outline>
</glyph>
<glyph name="dzeabkhasian-cy.sc" format="1">
  <advance width="1051"/>
  <outline>
    <contour>
      <point x="670" y="722" type="curve"/>
      <point x="976" y="1243" type="line"/>
      <point x="976" y="1292" type="line"/>
      <point x="77" y="1292" type="line"/>
      <point x="96" y="1030" type="line"/>
      <point x="300" y="1030" type="line"/>
      <point x="342" y="1201" type="line"/>
      <point x="628" y="1206" type="line"/>
      <point x="524" y="1248"/>
      <point x="488" y="710"/>
      <point x="384" y="734" type="curve"/>
      <point x="429" y="683" type="line"/>
      <point x="454" y="681"/>
      <point x="476" y="681"/>
      <point x="494" y="681" type="curve"/>
      <point x="641" y="668"/>
      <point x="636" y="579"/>
      <point x="636" y="384" type="curve" smooth="yes"/>
      <point x="636" y="232"/>
      <point x="548" y="75"/>
      <point x="461" y="75" type="curve" smooth="yes"/>
      <point x="402" y="75"/>
      <point x="365" y="107"/>
      <point x="362" y="112" type="curve"/>
      <point x="297" y="303" type="line"/>
      <point x="105" y="303" type="line"/>
      <point x="65" y="44" type="line"/>
      <point x="123" y="38"/>
      <point x="323" y="-8"/>
      <point x="480" y="-8" type="curve" smooth="yes"/>
      <point x="937" y="-8"/>
      <point x="1022" y="136"/>
      <point x="1022" y="394" type="curve" smooth="yes"/>
      <point x="1022" y="633"/>
      <point x="936" y="730"/>
      <point x="710" y="730" type="curve" smooth="yes"/>
      <point x="700" y="730"/>
      <point x="684" y="728"/>
    </contour>
  </outline>
</glyph>
<glyph name="dzhe-cy.sc" format="1">
  <advance width="1332"/>
  <outline>
    <contour>
      <point x="812" y="0" type="curve"/>
      <point x="1285" y="0" type="line"/>
      <point x="1285" y="57" type="line"/>
      <point x="1174" y="71" type="line"/>
      <point x="1174" y="1222" type="line"/>
      <point x="1285" y="1236" type="line"/>
      <point x="1285" y="1292" type="line"/>
      <point x="695" y="1292" type="line"/>
      <point x="695" y="1236" type="line"/>
      <point x="825" y="1222" type="line"/>
      <point x="825" y="75" type="line"/>
      <point x="510" y="75" type="line"/>
      <point x="510" y="1222" type="line"/>
      <point x="633" y="1236" type="line"/>
      <point x="633" y="1292" type="line"/>
      <point x="50" y="1292" type="line"/>
      <point x="50" y="1236" type="line"/>
      <point x="159" y="1222" type="line"/>
      <point x="159" y="73" type="line"/>
      <point x="49" y="57" type="line"/>
      <point x="49" y="0" type="line"/>
      <point x="512" y="0" type="line"/>
      <point x="527" y="5"/>
      <point x="567" y="-327"/>
      <point x="567" y="-295" type="curve"/>
      <point x="762" y="-295" type="line"/>
      <point x="760" y="-188"/>
      <point x="793" y="-125"/>
    </contour>
  </outline>
</glyph>
<glyph name="e-cy.sc" format="1">
  <advance width="1103"/>
  <outline>
    <contour>
      <point x="589" y="0" type="move" name="mark0"/>
    </contour>
    <contour>
      <point x="1037" y="46" type="curve"/>
      <point x="1027" y="268" type="line"/>
      <point x="835" y="279" type="line"/>
      <point x="769" y="117" type="line"/>
      <point x="758" y="76"/>
      <point x="726" y="53"/>
      <point x="645" y="53" type="curve" smooth="yes"/>
      <point x="523" y="53"/>
      <point x="448" y="334"/>
      <point x="431" y="629" type="curve"/>
      <point x="800" y="611" type="line"/>
      <point x="800" y="718" type="line"/>
      <point x="427" y="701" type="line"/>
      <point x="440" y="1026"/>
      <point x="537" y="1234"/>
      <point x="672" y="1234" type="curve" smooth="yes"/>
      <point x="722" y="1234"/>
      <point x="721" y="1207"/>
      <point x="734" y="1181" type="curve"/>
      <point x="780" y="992" type="line"/>
      <point x="1013" y="992" type="line"/>
      <point x="1035" y="1248" type="line"/>
      <point x="949" y="1262"/>
      <point x="845" y="1306"/>
      <point x="687" y="1306" type="curve" smooth="yes"/>
      <point x="283" y="1306"/>
      <point x="43" y="1021"/>
      <point x="43" y="655" type="curve" smooth="yes"/>
      <point x="43" y="250"/>
      <point x="230" y="-20"/>
      <point x="610" y="-20" type="curve" smooth="yes"/>
      <point x="835" y="-20"/>
      <point x="943" y="43"/>
    </contour>
  </outline>
</glyph>
<glyph name="ef-cy.sc" format="1">
  <advance width="1511"/>
  <outline>
    <contour>
      <point x="760" y="-144" type="move" name="mark0"/>
    </contour>
    <contour>
      <point x="925" y="1116" type="curve"/>
      <point x="925" y="1251" type="line"/>
      <point x="1037" y="1268" type="line"/>
      <point x="1037" y="1326" type="line"/>
      <point x="466" y="1326" type="line"/>
      <point x="466" y="1268" type="line"/>
      <point x="585" y="1251" type="line"/>
      <point x="585" y="1116" type="line"/>
      <point x="154" y="1090"/>
      <point x="35" y="901"/>
      <point x="35" y="666" type="curve" smooth="yes"/>
      <point x="35" y="454"/>
      <point x="113" y="213"/>
      <point x="585" y="188" type="curve"/>
      <point x="585" y="45" type="line"/>
      <point x="467" y="21" type="line"/>
      <point x="467" y="-36" type="line"/>
      <point x="1041" y="-36" type="line"/>
      <point x="1041" y="18" type="line"/>
      <point x="925" y="44" type="line"/>
      <point x="925" y="192" type="line"/>
      <point x="1300" y="224"/>
      <point x="1476" y="430"/>
      <point x="1476" y="664" type="curve" smooth="yes"/>
      <point x="1476" y="884"/>
      <point x="1403" y="1096"/>
    </contour>
    <contour>
      <point x="585" y="1066" type="curve"/>
      <point x="585" y="247" type="line"/>
      <point x="425" y="266"/>
      <point x="394" y="486"/>
      <point x="394" y="677" type="curve" smooth="yes"/>
      <point x="394" y="855"/>
      <point x="413" y="1046"/>
    </contour>
    <contour>
      <point x="925" y="250" type="curve"/>
      <point x="925" y="1065" type="line"/>
      <point x="1089" y="1047"/>
      <point x="1117" y="843"/>
      <point x="1117" y="662" type="curve" smooth="yes"/>
      <point x="1117" y="458"/>
      <point x="1098" y="272"/>
    </contour>
  </outline>
</glyph>
<glyph name="el-cy.sc" format="1">
  <advance width="1289"/>
  <outline>
    <contour>
      <point x="494" y="-144" type="move" name="mark0"/>
    </contour>
    <contour>
      <point x="497" y="1033" type="curve" smooth="yes"/>
      <point x="497" y="1223" type="line"/>
      <point x="746" y="1223" type="line"/>
      <point x="747" y="73" type="line"/>
      <point x="583" y="57" type="line"/>
      <point x="583" y="0" type="line"/>
      <point x="1239" y="0" type="line"/>
      <point x="1239" y="57" type="line"/>
      <point x="1094" y="71" type="line"/>
      <point x="1094" y="1222" type="line"/>
      <point x="1234" y="1236" type="line"/>
      <point x="1234" y="1292" type="line"/>
      <point x="145" y="1292" type="line"/>
      <point x="145" y="1236" type="line"/>
      <point x="349" y="1222" type="line"/>
      <point x="349" y="1030" type="line" smooth="yes"/>
      <point x="349" y="585"/>
      <point x="315" y="302"/>
      <point x="273" y="171" type="curve"/>
      <point x="245" y="133"/>
      <point x="222" y="110"/>
      <point x="176" y="110" type="curve" smooth="yes"/>
      <point x="126" y="110"/>
      <point x="99" y="115"/>
      <point x="52" y="119" type="curve"/>
      <point x="74" y="0" type="line"/>
      <point x="112" y="-2"/>
      <point x="157" y="-8"/>
      <point x="211" y="-8" type="curve" smooth="yes"/>
      <point x="297" y="-8"/>
      <point x="362" y="25"/>
      <point x="403" y="107" type="curve" smooth="yes"/>
      <point x="473" y="261"/>
      <point x="497" y="571"/>
    </contour>
  </outline>
</glyph>
<glyph name="eldescender-cy.sc" format="1">
  <advance width="1290"/>
  <outline>
    <contour>
      <point x="1262" y="73" type="curve"/>
      <point x="1094" y="73" type="line"/>
      <point x="1094" y="1222" type="line"/>
      <point x="1234" y="1236" type="line"/>
      <point x="1234" y="1292" type="line"/>
      <point x="145" y="1292" type="line"/>
      <point x="145" y="1236" type="line"/>
      <point x="349" y="1222" type="line"/>
      <point x="349" y="1030" type="line" smooth="yes"/>
      <point x="349" y="585"/>
      <point x="315" y="302"/>
      <point x="273" y="171" type="curve"/>
      <point x="245" y="133"/>
      <point x="222" y="110"/>
      <point x="176" y="110" type="curve" smooth="yes"/>
      <point x="126" y="110"/>
      <point x="99" y="115"/>
      <point x="52" y="119" type="curve"/>
      <point x="74" y="0" type="line"/>
      <point x="112" y="-2"/>
      <point x="157" y="-8"/>
      <point x="211" y="-8" type="curve" smooth="yes"/>
      <point x="297" y="-8"/>
      <point x="362" y="25"/>
      <point x="403" y="107" type="curve" smooth="yes"/>
      <point x="473" y="261"/>
      <point x="497" y="571"/>
      <point x="497" y="1033" type="curve" smooth="yes"/>
      <point x="497" y="1223" type="line"/>
      <point x="746" y="1223" type="line"/>
      <point x="747" y="73" type="line"/>
      <point x="583" y="57" type="line"/>
      <point x="583" y="0" type="line"/>
      <point x="980" y="0" type="line"/>
      <point x="1007" y="5"/>
      <point x="1044" y="-264"/>
      <point x="1045" y="-297" type="curve"/>
      <point x="1223" y="-297" type="line"/>
      <point x="1232" y="-303"/>
      <point x="1262" y="110"/>
    </contour>
  </outline>
</glyph>
<glyph name="elhook-cy.sc" format="1">
  <advance width="1244"/>
  <outline>
    <contour>
      <point x="1094" y="478" type="curve" smooth="yes"/>
      <point x="1094" y="1222" type="line"/>
      <point x="1234" y="1236" type="line"/>
      <point x="1234" y="1292" type="line"/>
      <point x="145" y="1292" type="line"/>
      <point x="145" y="1236" type="line"/>
      <point x="349" y="1222" type="line"/>
      <point x="349" y="1030" type="line" smooth="yes"/>
      <point x="349" y="585"/>
      <point x="315" y="302"/>
      <point x="273" y="171" type="curve"/>
      <point x="245" y="133"/>
      <point x="222" y="110"/>
      <point x="176" y="110" type="curve" smooth="yes"/>
      <point x="126" y="110"/>
      <point x="99" y="115"/>
      <point x="52" y="119" type="curve"/>
      <point x="74" y="0" type="line"/>
      <point x="112" y="-2"/>
      <point x="157" y="-8"/>
      <point x="211" y="-8" type="curve" smooth="yes"/>
      <point x="297" y="-8"/>
      <point x="362" y="25"/>
      <point x="403" y="107" type="curve" smooth="yes"/>
      <point x="473" y="261"/>
      <point x="497" y="571"/>
      <point x="497" y="1033" type="curve" smooth="yes"/>
      <point x="497" y="1223" type="line"/>
      <point x="745" y="1223" type="line"/>
      <point x="745" y="486" type="line" smooth="yes"/>
      <point x="745" y="197"/>
      <point x="728" y="100"/>
      <point x="713" y="-16" type="curve" smooth="yes"/>
      <point x="668" y="-131"/>
      <point x="592" y="-212"/>
      <point x="533" y="-240" type="curve"/>
      <point x="609" y="-285" type="line"/>
      <point x="888" y="-264"/>
      <point x="1018" y="-175"/>
      <point x="1068" y="40" type="curve"/>
      <point x="1089" y="138"/>
      <point x="1094" y="286"/>
    </contour>
  </outline>
</glyph>
<glyph name="eltail-cy.sc" format="1">
  <advance width="1298"/>
  <outline>
    <contour>
      <point x="518" y="-144" type="move" name="mark0"/>
    </contour>
    <contour>
      <point x="1246" y="0" type="curve"/>
      <point x="1246" y="72" type="line"/>
      <point x="1094" y="72" type="line"/>
      <point x="1094" y="1222" type="line"/>
      <point x="1234" y="1236" type="line"/>
      <point x="1234" y="1292" type="line"/>
      <point x="145" y="1292" type="line"/>
      <point x="145" y="1236" type="line"/>
      <point x="349" y="1222" type="line"/>
      <point x="349" y="1030" type="line" smooth="yes"/>
      <point x="349" y="587"/>
      <point x="315" y="301"/>
      <point x="273" y="171" type="curve"/>
      <point x="249" y="129"/>
      <point x="226" y="111"/>
      <point x="176" y="111" type="curve" smooth="yes"/>
      <point x="124" y="111"/>
      <point x="97" y="115"/>
      <point x="52" y="120" type="curve"/>
      <point x="74" y="0" type="line"/>
      <point x="112" y="-2"/>
      <point x="157" y="-8"/>
      <point x="211" y="-8" type="curve" smooth="yes"/>
      <point x="295" y="-8"/>
      <point x="354" y="25"/>
      <point x="395" y="104" type="curve" smooth="yes"/>
      <point x="469" y="270"/>
      <point x="497" y="579"/>
      <point x="497" y="1033" type="curve" smooth="yes"/>
      <point x="497" y="1223" type="line"/>
      <point x="746" y="1223" type="line"/>
      <point x="748" y="73" type="line"/>
      <point x="583" y="57" type="line"/>
      <point x="583" y="0" type="line"/>
      <point x="987" y="0" type="line"/>
      <point x="967" y="1"/>
      <point x="921" y="-326"/>
      <point x="870" y="-295" type="curve"/>
      <point x="1046" y="-295" type="line"/>
      <point x="1081" y="-305"/>
      <point x="1183" y="33"/>
    </contour>
  </outline>
</glyph>
<glyph name="emtail-cy.sc" format="1">
  <advance width="1674"/>
  <outline>
    <contour>
      <point x="681" y="-144" type="move" name="mark0"/>
    </contour>
    <contour>
      <point x="1679" y="0" type="curve"/>
      <point x="1679" y="75" type="line"/>
      <point x="1562" y="75" type="line"/>
      <point x="1426" y="1222" type="line"/>
      <point x="1591" y="1236" type="line"/>
      <point x="1591" y="1292" type="line"/>
      <point x="969" y="1292" type="line"/>
      <point x="866" y="376" type="line"/>
      <point x="848" y="131" type="line"/>
      <point x="825" y="376" type="line"/>
      <point x="701" y="1292" type="line"/>
      <point x="105" y="1292" type="line"/>
      <point x="105" y="1236" type="line"/>
      <point x="241" y="1222" type="line"/>
      <point x="121" y="73" type="line"/>
      <point x="-4" y="57" type="line"/>
      <point x="-4" y="0" type="line"/>
      <point x="475" y="0" type="line"/>
      <point x="475" y="57" type="line"/>
      <point x="317" y="73" type="line"/>
      <point x="374" y="884" type="line"/>
      <point x="391" y="1249" type="line"/>
      <point x="434" y="898" type="line"/>
      <point x="628" y="-14" type="line"/>
      <point x="916" y="-14" type="line"/>
      <point x="1062" y="1031" type="line"/>
      <point x="1098" y="1252" type="line"/>
      <point x="1124" y="884" type="line"/>
      <point x="1191" y="73" type="line"/>
      <point x="1071" y="57" type="line"/>
      <point x="1071" y="0" type="line"/>
      <point x="1420" y="0" type="line"/>
      <point x="1401" y="13"/>
      <point x="1352" y="-318"/>
      <point x="1321" y="-295" type="curve"/>
      <point x="1495" y="-295" type="line"/>
      <point x="1524" y="-298"/>
      <point x="1609" y="36"/>
    </contour>
  </outline>
</glyph>
<glyph name="endescender-cy.sc" format="1">
  <advance width="1343"/>
  <outline>
    <contour>
      <point x="589" y="-144" type="move" name="mark0"/>
    </contour>
    <contour>
      <point x="1338" y="73" type="curve"/>
      <point x="1178" y="73" type="line"/>
      <point x="1178" y="1221" type="line"/>
      <point x="1285" y="1236" type="line"/>
      <point x="1285" y="1292" type="line"/>
      <point x="718" y="1292" type="line"/>
      <point x="718" y="1236" type="line"/>
      <point x="828" y="1222" type="line"/>
      <point x="828" y="701" type="line"/>
      <point x="511" y="701" type="line"/>
      <point x="511" y="1221" type="line"/>
      <point x="631" y="1236" type="line"/>
      <point x="631" y="1292" type="line"/>
      <point x="58" y="1292" type="line"/>
      <point x="58" y="1236" type="line"/>
      <point x="158" y="1221" type="line"/>
      <point x="158" y="71" type="line"/>
      <point x="57" y="57" type="line"/>
      <point x="57" y="0" type="line"/>
      <point x="631" y="0" type="line"/>
      <point x="631" y="57" type="line"/>
      <point x="511" y="71" type="line"/>
      <point x="511" y="631" type="line"/>
      <point x="828" y="631" type="line"/>
      <point x="828" y="73" type="line"/>
      <point x="718" y="57" type="line"/>
      <point x="718" y="0" type="line"/>
      <point x="1057" y="0" type="line"/>
      <point x="1086" y="-3"/>
      <point x="1120" y="-275"/>
      <point x="1123" y="-297" type="curve"/>
      <point x="1300" y="-297" type="line"/>
      <point x="1309" y="-298"/>
      <point x="1338" y="120"/>
    </contour>
  </outline>
</glyph>
<glyph name="enghe-cy.sc" format="1">
  <advance width="1589"/>
  <outline>
    <contour>
      <point x="49" y="1292" type="line"/>
      <point x="49" y="1236" type="line"/>
      <point x="157" y="1221" type="line"/>
      <point x="157" y="71" type="line"/>
      <point x="49" y="57" type="line"/>
      <point x="49" y="0" type="line"/>
      <point x="628" y="0" type="line"/>
      <point x="628" y="57" type="line"/>
      <point x="510" y="73" type="line"/>
      <point x="510" y="631" type="line"/>
      <point x="824" y="631" type="line"/>
      <point x="824" y="73" type="line"/>
      <point x="718" y="57" type="line"/>
      <point x="718" y="0" type="line"/>
      <point x="1308" y="0" type="line"/>
      <point x="1308" y="57" type="line"/>
      <point x="1175" y="73" type="line"/>
      <point x="1175" y="1236" type="line"/>
      <point x="1300" y="1216" type="line"/>
      <point x="1373" y="917" type="line"/>
      <point x="1562" y="917" type="line"/>
      <point x="1532" y="1292" type="line"/>
      <point x="716" y="1292" type="line"/>
      <point x="716" y="1236" type="line"/>
      <point x="824" y="1222" type="line"/>
      <point x="824" y="701" type="line"/>
      <point x="510" y="701" type="line"/>
      <point x="510" y="1222" type="line"/>
      <point x="628" y="1236" type="line"/>
      <point x="628" y="1292" type="line"/>
    </contour>
  </outline>
</glyph>
<glyph name="enhook-cy.sc" format="1">
  <advance width="1305"/>
  <outline>
    <contour>
      <point x="631" y="-144" type="move" name="mark0"/>
    </contour>
    <contour>
      <point x="1178" y="434" type="curve" smooth="yes"/>
      <point x="1178" y="1222" type="line"/>
      <point x="1283" y="1236" type="line"/>
      <point x="1283" y="1292" type="line"/>
      <point x="718" y="1292" type="line"/>
      <point x="718" y="1236" type="line"/>
      <point x="828" y="1222" type="line"/>
      <point x="828" y="701" type="line"/>
      <point x="511" y="701" type="line"/>
      <point x="511" y="1221" type="line"/>
      <point x="631" y="1236" type="line"/>
      <point x="631" y="1292" type="line"/>
      <point x="58" y="1292" type="line"/>
      <point x="58" y="1236" type="line"/>
      <point x="158" y="1221" type="line"/>
      <point x="158" y="71" type="line"/>
      <point x="57" y="57" type="line"/>
      <point x="57" y="0" type="line"/>
      <point x="631" y="0" type="line"/>
      <point x="631" y="57" type="line"/>
      <point x="511" y="71" type="line"/>
      <point x="511" y="631" type="line"/>
      <point x="828" y="631" type="line"/>
      <point x="828" y="442" type="line" smooth="yes"/>
      <point x="828" y="122"/>
      <point x="815" y="15"/>
      <point x="802" y="-79" type="curve"/>
      <point x="757" y="-149"/>
      <point x="682" y="-209"/>
      <point x="606" y="-227" type="curve"/>
      <point x="682" y="-279" type="line"/>
      <point x="983" y="-270"/>
      <point x="1100" y="-202"/>
      <point x="1149" y="-35" type="curve"/>
      <point x="1170" y="98"/>
      <point x="1178" y="223"/>
    </contour>
  </outline>
</glyph>
<glyph name="enlefthook-cy.sc" format="1">
  <advance width="1332"/>
  <outline>
    <contour>
      <point x="529" y="478" type="curve" smooth="yes"/>
      <point x="529" y="631" type="line"/>
      <point x="835" y="631" type="line"/>
      <point x="835" y="74" type="line"/>
      <point x="725" y="57" type="line"/>
      <point x="725" y="0" type="line"/>
      <point x="1286" y="0" type="line"/>
      <point x="1286" y="57" type="line"/>
      <point x="1183" y="72" type="line"/>
      <point x="1183" y="1221" type="line"/>
      <point x="1286" y="1236" type="line"/>
      <point x="1286" y="1292" type="line"/>
      <point x="727" y="1292" type="line"/>
      <point x="727" y="1236" type="line"/>
      <point x="835" y="1222" type="line"/>
      <point x="835" y="701" type="line"/>
      <point x="529" y="701" type="line"/>
      <point x="529" y="1221" type="line"/>
      <point x="650" y="1236" type="line"/>
      <point x="650" y="1292" type="line"/>
      <point x="79" y="1292" type="line"/>
      <point x="79" y="1236" type="line"/>
      <point x="180" y="1221" type="line"/>
      <point x="180" y="486" type="line" smooth="yes"/>
      <point x="180" y="227"/>
      <point x="164" y="111"/>
      <point x="149" y="-20" type="curve" smooth="yes"/>
      <point x="104" y="-129"/>
      <point x="28" y="-212"/>
      <point x="-32" y="-240" type="curve"/>
      <point x="44" y="-285" type="line"/>
      <point x="316" y="-262"/>
      <point x="449" y="-166"/>
      <point x="502" y="41" type="curve"/>
      <point x="526" y="156"/>
      <point x="529" y="280"/>
    </contour>
  </outline>
</glyph>
<glyph name="entail-cy.sc" format="1">
  <advance width="1330"/>
  <outline>
    <contour>
      <point x="1320" y="0" type="curve"/>
      <point x="1320" y="70" type="line"/>
      <point x="1178" y="70" type="line"/>
      <point x="1178" y="1221" type="line"/>
      <point x="1287" y="1236" type="line"/>
      <point x="1287" y="1292" type="line"/>
      <point x="716" y="1292" type="line"/>
      <point x="716" y="1236" type="line"/>
      <point x="826" y="1222" type="line"/>
      <point x="826" y="701" type="line"/>
      <point x="512" y="701" type="line"/>
      <point x="512" y="1222" type="line"/>
      <point x="633" y="1236" type="line"/>
      <point x="633" y="1292" type="line"/>
      <point x="51" y="1292" type="line"/>
      <point x="51" y="1236" type="line"/>
      <point x="158" y="1222" type="line"/>
      <point x="158" y="71" type="line"/>
      <point x="50" y="56" type="line"/>
      <point x="50" y="0" type="line"/>
      <point x="633" y="0" type="line"/>
      <point x="633" y="56" type="line"/>
      <point x="512" y="73" type="line"/>
      <point x="512" y="631" type="line"/>
      <point x="826" y="631" type="line"/>
      <point x="826" y="73" type="line"/>
      <point x="718" y="56" type="line"/>
      <point x="718" y="0" type="line"/>
      <point x="1070" y="0" type="line"/>
      <point x="1044" y="-114"/>
      <point x="979" y="-197"/>
      <point x="934" y="-298" type="curve"/>
      <point x="1116" y="-298" type="line"/>
      <point x="1148" y="-309"/>
      <point x="1266" y="21"/>
    </contour>
  </outline>
</glyph>
<glyph name="ereversed-cy.sc" format="1">
  <advance width="1093"/>
  <outline>
    <contour>
      <point x="523" y="1265" type="move" name="top"/>
    </contour>
    <contour>
      <point x="52" y="1240" type="curve"/>
      <point x="69" y="997" type="line"/>
      <point x="265" y="995" type="line"/>
      <point x="326" y="1139" type="line"/>
      <point x="337" y="1181"/>
      <point x="377" y="1237"/>
      <point x="453" y="1237" type="curve" smooth="yes"/>
      <point x="566" y="1237"/>
      <point x="637" y="974"/>
      <point x="659" y="699" type="curve"/>
      <point x="278" y="717" type="line"/>
      <point x="278" y="609" type="line"/>
      <point x="665" y="625" type="line"/>
      <point x="659" y="277"/>
      <point x="580" y="57"/>
      <point x="435" y="57" type="curve" smooth="yes"/>
      <point x="378" y="57"/>
      <point x="365" y="108"/>
      <point x="355" y="140" type="curve"/>
      <point x="306" y="271" type="line"/>
      <point x="75" y="245" type="line"/>
      <point x="61" y="50" type="line"/>
      <point x="149" y="51"/>
      <point x="252" y="-20"/>
      <point x="420" y="-20" type="curve" smooth="yes"/>
      <point x="822" y="-20"/>
      <point x="1050" y="256"/>
      <point x="1050" y="628" type="curve" smooth="yes"/>
      <point x="1050" y="1029"/>
      <point x="865" y="1306"/>
      <point x="486" y="1306" type="curve" smooth="yes"/>
      <point x="260" y="1306"/>
      <point x="145" y="1243"/>
    </contour>
  </outline>
</glyph>
<glyph name="ertick-cy.sc" format="1">
  <advance width="1085"/>
  <outline>
    <contour>
      <point x="534" y="-144" type="move" name="mark0"/>
    </contour>
    <contour>
      <point x="344" y="1292" type="curve" smooth="yes"/>
      <point x="53" y="1292" type="line"/>
      <point x="53" y="1236" type="line"/>
      <point x="158" y="1222" type="line"/>
      <point x="158" y="71" type="line"/>
      <point x="51" y="57" type="line"/>
      <point x="51" y="0" type="line"/>
      <point x="708" y="0" type="line"/>
      <point x="708" y="57" type="line"/>
      <point x="512" y="74" type="line"/>
      <point x="512" y="523" type="line"/>
      <point x="529" y="518"/>
      <point x="553" y="514"/>
      <point x="582" y="514" type="curve" smooth="yes"/>
      <point x="670" y="514"/>
      <point x="747" y="523"/>
      <point x="811" y="538" type="curve"/>
      <point x="936" y="317" type="line"/>
      <point x="1012" y="355" type="line"/>
      <point x="907" y="567" type="line"/>
      <point x="1009" y="633"/>
      <point x="1060" y="763"/>
      <point x="1060" y="950" type="curve" smooth="yes"/>
      <point x="1060" y="1170"/>
      <point x="952" y="1306"/>
      <point x="596" y="1306" type="curve" smooth="yes"/>
      <point x="487" y="1305"/>
      <point x="393" y="1292"/>
    </contour>
    <contour>
      <point x="711" y="607" type="curve"/>
      <point x="630" y="783" type="line"/>
      <point x="555" y="744" type="line"/>
      <point x="674" y="591" type="line"/>
      <point x="649" y="587"/>
      <point x="614" y="586"/>
      <point x="571" y="586" type="curve" smooth="yes"/>
      <point x="531" y="586"/>
      <point x="517" y="586"/>
      <point x="511" y="593" type="curve"/>
      <point x="511" y="1226" type="line"/>
      <point x="522" y="1224"/>
      <point x="519" y="1236"/>
      <point x="567" y="1236" type="curve" smooth="yes"/>
      <point x="654" y="1236"/>
      <point x="705" y="1165"/>
      <point x="705" y="951" type="curve" smooth="yes"/>
      <point x="705" y="765"/>
      <point x="710" y="659"/>
    </contour>
  </outline>
</glyph>
<glyph name="esdescender-cy.sc" format="1">
  <advance width="1063"/>
  <outline>
    <contour>
      <point x="987" y="46" type="curve"/>
      <point x="1008" y="259" type="line"/>
      <point x="809" y="269" type="line"/>
      <point x="736" y="116" type="line"/>
      <point x="717" y="76"/>
      <point x="694" y="46"/>
      <point x="625" y="46" type="curve" smooth="yes"/>
      <point x="504" y="46"/>
      <point x="437" y="362"/>
      <point x="437" y="671" type="curve" smooth="yes"/>
      <point x="437" y="1029"/>
      <point x="505" y="1241"/>
      <point x="623" y="1241" type="curve" smooth="yes"/>
      <point x="680" y="1241"/>
      <point x="697" y="1212"/>
      <point x="709" y="1182" type="curve"/>
      <point x="772" y="1007" type="line"/>
      <point x="991" y="1007" type="line"/>
      <point x="1015" y="1247" type="line"/>
      <point x="947" y="1264"/>
      <point x="793" y="1306"/>
      <point x="630" y="1306" type="curve" smooth="yes"/>
      <point x="290" y="1306"/>
      <point x="42" y="1033"/>
      <point x="42" y="661" type="curve" smooth="yes"/>
      <point x="42" y="292"/>
      <point x="178" y="20"/>
      <point x="463" y="-17" type="curve"/>
      <point x="480" y="-78"/>
      <point x="516" y="-324"/>
      <point x="516" y="-295" type="curve"/>
      <point x="709" y="-295" type="line"/>
      <point x="706" y="58"/>
      <point x="738" y="-147"/>
      <point x="755" y="-17" type="curve"/>
      <point x="844" y="-9"/>
      <point x="902" y="44"/>
    </contour>
  </outline>
</glyph>
<glyph name="fita-cy.sc" format="1">
  <advance width="1167"/>
  <outline>
    <contour>
      <point x="579" y="-20" type="curve" smooth="yes"/>
      <point x="926" y="-12"/>
      <point x="1122" y="244"/>
      <point x="1122" y="654" type="curve" smooth="yes"/>
      <point x="1122" y="1047"/>
      <point x="992" y="1307"/>
      <point x="589" y="1306" type="curve" smooth="yes"/>
      <point x="246" y="1306"/>
      <point x="46" y="1046"/>
      <point x="46" y="633" type="curve" smooth="yes"/>
      <point x="46" y="247"/>
      <point x="183" y="-28"/>
    </contour>
    <contour>
      <point x="583" y="48" type="curve" smooth="yes"/>
      <point x="493" y="48"/>
      <point x="435" y="269"/>
      <point x="430" y="546" type="curve"/>
      <point x="442" y="588"/>
      <point x="452" y="675"/>
      <point x="469" y="675" type="curve" smooth="yes"/>
      <point x="548" y="675"/>
      <point x="575" y="550"/>
      <point x="674" y="550" type="curve" smooth="yes"/>
      <point x="696" y="550"/>
      <point x="715" y="625"/>
      <point x="735" y="699" type="curve"/>
      <point x="721" y="289"/>
      <point x="668" y="48"/>
    </contour>
    <contour>
      <point x="435" y="618" type="curve"/>
      <point x="450" y="1033"/>
      <point x="496" y="1238"/>
      <point x="587" y="1238" type="curve" smooth="yes"/>
      <point x="674" y="1238"/>
      <point x="734" y="1026"/>
      <point x="737" y="770" type="curve"/>
      <point x="729" y="729"/>
      <point x="729" y="640"/>
      <point x="709" y="640" type="curve" smooth="yes"/>
      <point x="630" y="640"/>
      <point x="602" y="765"/>
      <point x="502" y="765" type="curve" smooth="yes"/>
      <point x="483" y="765"/>
      <point x="457" y="696"/>
    </contour>
  </outline>
</glyph>
<glyph name="ge-cy.sc" format="1">
  <advance width="1005"/>
  <outline>
    <contour>
      <point x="554" y="1264" type="move" name="top"/>
    </contour>
    <contour>
      <point x="502" y="648" type="move" name="center"/>
    </contour>
    <contour>
      <point x="223" y="0" type="move" name="bottomright"/>
    </contour>
    <contour>
      <point x="55" y="1292" type="line"/>
      <point x="55" y="1239" type="line"/>
      <point x="219" y="1219" type="line"/>
      <point x="219" y="73" type="line"/>
      <point x="53" y="56" type="line"/>
      <point x="53" y="0" type="line"/>
      <point x="790" y="0" type="line"/>
      <point x="790" y="56" type="line"/>
      <point x="567" y="73" type="line"/>
      <point x="567" y="1235" type="line"/>
      <point x="741" y="1228" type="line"/>
      <point x="807" y="886" type="line"/>
      <point x="1000" y="886" type="line"/>
      <point x="966" y="1292" type="line"/>
    </contour>
  </outline>
</glyph>
<glyph name="gedescender-cy.sc" format="1">
  <advance width="1002"/>
  <outline>
    <contour>
      <point x="537" y="-144" type="move" name="mark0"/>
    </contour>
    <contour>
      <point x="835" y="73" type="curve"/>
      <point x="567" y="73" type="line"/>
      <point x="567" y="1235" type="line"/>
      <point x="741" y="1228" type="line"/>
      <point x="814" y="886" type="line"/>
      <point x="1000" y="886" type="line"/>
      <point x="966" y="1292" type="line"/>
      <point x="55" y="1292" type="line"/>
      <point x="55" y="1239" type="line"/>
      <point x="219" y="1219" type="line"/>
      <point x="219" y="73" type="line"/>
      <point x="53" y="56" type="line"/>
      <point x="53" y="0" type="line"/>
      <point x="553" y="0" type="line"/>
      <point x="582" y="-3"/>
      <point x="619" y="-261"/>
      <point x="619" y="-297" type="curve"/>
      <point x="795" y="-297" type="line"/>
      <point x="805" y="-304"/>
      <point x="835" y="105"/>
    </contour>
  </outline>
</glyph>
<glyph name="gestrokehook-cy.sc" format="1">
  <advance width="1000"/>
  <outline>
    <contour>
      <point x="787" y="56" type="curve"/>
      <point x="567" y="73" type="line"/>
      <point x="567" y="611" type="line"/>
      <point x="725" y="611" type="line"/>
      <point x="725" y="676" type="line"/>
      <point x="567" y="676" type="line"/>
      <point x="567" y="1235" type="line"/>
      <point x="741" y="1228" type="line"/>
      <point x="807" y="886" type="line"/>
      <point x="1000" y="886" type="line"/>
      <point x="966" y="1292" type="line"/>
      <point x="55" y="1292" type="line"/>
      <point x="55" y="1239" type="line"/>
      <point x="219" y="1219" type="line"/>
      <point x="219" y="676" type="line"/>
      <point x="84" y="676" type="line"/>
      <point x="84" y="611" type="line"/>
      <point x="219" y="611" type="line"/>
      <point x="219" y="73" type="line"/>
      <point x="53" y="56" type="line"/>
      <point x="53" y="0" type="line"/>
      <point x="673" y="0" type="line"/>
      <point x="676" y="-65"/>
      <point x="680" y="-126"/>
      <point x="680" y="-163" type="curve" smooth="yes"/>
      <point x="680" y="-268"/>
      <point x="646" y="-309"/>
      <point x="581" y="-309" type="curve" smooth="yes"/>
      <point x="570" y="-309"/>
      <point x="536" y="-305"/>
      <point x="519" y="-294" type="curve"/>
      <point x="520" y="-372" type="line"/>
      <point x="545" y="-383"/>
      <point x="598" y="-392"/>
      <point x="629" y="-392" type="curve" smooth="yes"/>
      <point x="783" y="-392"/>
      <point x="889" y="-324"/>
      <point x="889" y="-233" type="curve" smooth="yes"/>
      <point x="889" y="-130"/>
      <point x="871" y="-10"/>
    </contour>
  </outline>
</glyph>
<glyph name="ghemiddlehook-cy.sc" format="1">
  <advance width="1266"/>
  <outline>
    <contour>
      <point x="564" y="667" type="curve"/>
      <point x="564" y="1234" type="line"/>
      <point x="745" y="1221" type="line"/>
      <point x="800" y="967" type="line"/>
      <point x="993" y="967" type="line"/>
      <point x="973" y="1292" type="line"/>
      <point x="52" y="1292" type="line"/>
      <point x="52" y="1239" type="line"/>
      <point x="214" y="1219" type="line"/>
      <point x="214" y="73" type="line"/>
      <point x="49" y="57" type="line"/>
      <point x="49" y="0" type="line"/>
      <point x="771" y="0" type="line"/>
      <point x="771" y="57" type="line"/>
      <point x="564" y="73" type="line"/>
      <point x="564" y="613" type="line"/>
      <point x="586" y="655"/>
      <point x="648" y="665"/>
      <point x="726" y="665" type="curve" smooth="yes"/>
      <point x="832" y="665"/>
      <point x="878" y="536"/>
      <point x="878" y="307" type="curve" smooth="yes"/>
      <point x="878" y="-62"/>
      <point x="818" y="-265"/>
      <point x="712" y="-265" type="curve" smooth="yes"/>
      <point x="612" y="-265"/>
      <point x="590" y="-266"/>
      <point x="571" y="-266" type="curve"/>
      <point x="587" y="-331" type="line"/>
      <point x="614" y="-340"/>
      <point x="668" y="-338"/>
      <point x="765" y="-338" type="curve" smooth="yes"/>
      <point x="1033" y="-338"/>
      <point x="1237" y="-39"/>
      <point x="1237" y="308" type="curve" smooth="yes"/>
      <point x="1237" y="518"/>
      <point x="1044" y="737"/>
      <point x="807" y="737" type="curve" smooth="yes"/>
      <point x="716" y="737"/>
      <point x="597" y="721"/>
    </contour>
  </outline>
</glyph>
<glyph name="ghestroke-cy.sc" format="1">
  <advance width="1000"/>
  <outline>
    <contour>
      <point x="55" y="1292" type="line"/>
      <point x="55" y="1239" type="line"/>
      <point x="219" y="1219" type="line"/>
      <point x="219" y="676" type="line"/>
      <point x="84" y="676" type="line"/>
      <point x="84" y="611" type="line"/>
      <point x="219" y="611" type="line"/>
      <point x="219" y="73" type="line"/>
      <point x="53" y="56" type="line"/>
      <point x="53" y="0" type="line"/>
      <point x="790" y="0" type="line"/>
      <point x="790" y="56" type="line"/>
      <point x="567" y="73" type="line"/>
      <point x="567" y="611" type="line"/>
      <point x="725" y="611" type="line"/>
      <point x="725" y="676" type="line"/>
      <point x="567" y="676" type="line"/>
      <point x="567" y="1235" type="line"/>
      <point x="741" y="1228" type="line"/>
      <point x="807" y="886" type="line"/>
      <point x="1000" y="886" type="line"/>
      <point x="966" y="1292" type="line"/>
    </contour>
  </outline>
</glyph>
<glyph name="gheupturn-cy.sc" format="1">
  <advance width="951"/>
  <outline>
    <contour>
      <point x="522" y="-144" type="move" name="mark0"/>
    </contour>
    <contour>
      <point x="759" y="1598" type="line"/>
      <point x="688" y="1292" type="line"/>
      <point x="51" y="1292" type="line"/>
      <point x="51" y="1239" type="line"/>
      <point x="202" y="1218" type="line"/>
      <point x="202" y="74" type="line"/>
      <point x="50" y="56" type="line"/>
      <point x="50" y="0" type="line"/>
      <point x="775" y="0" type="line"/>
      <point x="775" y="56" type="line"/>
      <point x="552" y="74" type="line"/>
      <point x="552" y="1235" type="line"/>
      <point x="904" y="1230" type="line"/>
      <point x="916" y="1598" type="line"/>
    </contour>
  </outline>
</glyph>
<glyph name="haabkhasian-cy.sc" format="1">
  <advance width="1486"/>
  <outline>
    <contour>
      <point x="782" y="1226" type="curve"/>
      <point x="799" y="1301" type="line"/>
      <point x="771" y="1305"/>
      <point x="712" y="1306"/>
      <point x="677" y="1306" type="curve" smooth="yes"/>
      <point x="286" y="1306"/>
      <point x="44" y="1076"/>
      <point x="44" y="634" type="curve" smooth="yes"/>
      <point x="44" y="264"/>
      <point x="190" y="-20"/>
      <point x="633" y="-20" type="curve" smooth="yes"/>
      <point x="729" y="-20"/>
      <point x="839" y="3"/>
      <point x="910" y="52" type="curve"/>
      <point x="996" y="15"/>
      <point x="1098" y="-20"/>
      <point x="1201" y="-20" type="curve" smooth="yes"/>
      <point x="1300" y="-20"/>
      <point x="1376" y="3"/>
      <point x="1447" y="50" type="curve"/>
      <point x="1413" y="89" type="line"/>
      <point x="1367" y="57"/>
      <point x="1309" y="48"/>
      <point x="1253" y="48" type="curve" smooth="yes"/>
      <point x="1203" y="48"/>
      <point x="1155" y="68"/>
      <point x="1105" y="101" type="curve"/>
      <point x="1209" y="159"/>
      <point x="1350" y="348"/>
      <point x="1350" y="602" type="curve" smooth="yes"/>
      <point x="1350" y="953"/>
      <point x="1125" y="1054"/>
      <point x="943" y="1054" type="curve" smooth="yes"/>
      <point x="752" y="1054"/>
      <point x="550" y="938"/>
      <point x="550" y="590" type="curve" smooth="yes"/>
      <point x="550" y="382"/>
      <point x="635" y="153"/>
      <point x="771" y="85" type="curve"/>
      <point x="750" y="46"/>
      <point x="725" y="48"/>
      <point x="695" y="48" type="curve" smooth="yes"/>
      <point x="551" y="48"/>
      <point x="412" y="268"/>
      <point x="412" y="636" type="curve" smooth="yes"/>
      <point x="412" y="1059"/>
      <point x="575" y="1240"/>
      <point x="718" y="1240" type="curve" smooth="yes"/>
      <point x="740" y="1240"/>
      <point x="763" y="1236"/>
    </contour>
    <contour>
      <point x="942" y="1003" type="curve" smooth="yes"/>
      <point x="1012" y="1003"/>
      <point x="1021" y="855"/>
      <point x="1021" y="600" type="curve" smooth="yes"/>
      <point x="1021" y="371"/>
      <point x="1007" y="203"/>
      <point x="962" y="128" type="curve"/>
      <point x="883" y="213"/>
      <point x="854" y="396"/>
      <point x="854" y="578" type="curve" smooth="yes"/>
      <point x="854" y="881"/>
      <point x="866" y="1003"/>
    </contour>
  </outline>
</glyph>
<glyph name="hadescender-cy.sc" format="1">
  <advance width="1196"/>
  <outline>
    <contour>
      <point x="590" y="-144" type="move" name="mark0"/>
    </contour>
    <contour>
      <point x="1193" y="73" type="curve"/>
      <point x="1064" y="73" type="line"/>
      <point x="743" y="661" type="line"/>
      <point x="1015" y="1219" type="line"/>
      <point x="1144" y="1236" type="line"/>
      <point x="1144" y="1292" type="line"/>
      <point x="713" y="1292" type="line"/>
      <point x="713" y="1236" type="line"/>
      <point x="837" y="1222" type="line"/>
      <point x="669" y="706" type="line"/>
      <point x="516" y="1220" type="line"/>
      <point x="613" y="1236" type="line"/>
      <point x="613" y="1292" type="line"/>
      <point x="19" y="1292" type="line"/>
      <point x="19" y="1236" type="line"/>
      <point x="109" y="1219" type="line"/>
      <point x="411" y="669" type="line"/>
      <point x="143" y="71" type="line"/>
      <point x="21" y="57" type="line"/>
      <point x="21" y="0" type="line"/>
      <point x="462" y="0" type="line"/>
      <point x="462" y="57" type="line"/>
      <point x="328" y="71" type="line"/>
      <point x="491" y="623" type="line"/>
      <point x="660" y="73" type="line"/>
      <point x="558" y="57" type="line"/>
      <point x="558" y="0" type="line"/>
      <point x="913" y="0" type="line"/>
      <point x="941" y="8"/>
      <point x="977" y="-251"/>
      <point x="978" y="-289" type="curve"/>
      <point x="1154" y="-289" type="line"/>
      <point x="1164" y="-287"/>
      <point x="1193" y="119"/>
    </contour>
  </outline>
</glyph>
<glyph name="hahook-cy.sc" format="1">
  <advance width="1160"/>
  <outline>
    <contour>
      <point x="763" y="667" type="curve"/>
      <point x="1015" y="1219" type="line"/>
      <point x="1144" y="1236" type="line"/>
      <point x="1144" y="1292" type="line"/>
      <point x="713" y="1292" type="line"/>
      <point x="713" y="1236" type="line"/>
      <point x="837" y="1222" type="line"/>
      <point x="678" y="714" type="line"/>
      <point x="516" y="1220" type="line"/>
      <point x="613" y="1236" type="line"/>
      <point x="613" y="1292" type="line"/>
      <point x="19" y="1292" type="line"/>
      <point x="19" y="1236" type="line"/>
      <point x="109" y="1219" type="line"/>
      <point x="422" y="674" type="line"/>
      <point x="143" y="71" type="line"/>
      <point x="21" y="57" type="line"/>
      <point x="21" y="0" type="line"/>
      <point x="462" y="0" type="line"/>
      <point x="462" y="57" type="line"/>
      <point x="328" y="71" type="line"/>
      <point x="510" y="627" type="line"/>
      <point x="593" y="148"/>
      <point x="763" y="45"/>
      <point x="763" y="-36" type="curve" smooth="yes"/>
      <point x="763" y="-138"/>
      <point x="761" y="-205"/>
      <point x="655" y="-244" type="curve"/>
      <point x="758" y="-336" type="line"/>
      <point x="904" y="-256"/>
      <point x="1080" y="-117"/>
      <point x="1080" y="-17" type="curve" smooth="yes"/>
      <point x="1080" y="117"/>
      <point x="865" y="284"/>
    </contour>
  </outline>
</glyph>
<glyph name="hardsign-cy.sc" format="1">
  <advance width="1404"/>
  <outline>
    <contour>
      <point x="715" y="-144" type="move" name="mark0"/>
    </contour>
    <contour>
      <point x="965" y="796" type="curve" smooth="yes"/>
      <point x="779" y="796" type="line"/>
      <point x="779" y="1222" type="line"/>
      <point x="969" y="1236" type="line"/>
      <point x="969" y="1292" type="line"/>
      <point x="66" y="1292" type="line"/>
      <point x="36" y="921" type="line"/>
      <point x="229" y="921" type="line"/>
      <point x="295" y="1221" type="line"/>
      <point x="430" y="1234" type="line"/>
      <point x="430" y="73" type="line"/>
      <point x="191" y="56" type="line"/>
      <point x="191" y="0" type="line"/>
      <point x="617" y="0" type="line" smooth="yes"/>
      <point x="681" y="0"/>
      <point x="934" y="-14"/>
      <point x="971" y="-14" type="curve" smooth="yes"/>
      <point x="1230" y="-14"/>
      <point x="1375" y="126"/>
      <point x="1375" y="411" type="curve" smooth="yes"/>
      <point x="1375" y="653"/>
      <point x="1259" y="796"/>
    </contour>
    <contour>
      <point x="779" y="66" type="curve"/>
      <point x="779" y="723" type="line"/>
      <point x="871" y="723" type="line" smooth="yes"/>
      <point x="957" y="723"/>
      <point x="1015" y="606"/>
      <point x="1015" y="405" type="curve" smooth="yes"/>
      <point x="1015" y="161"/>
      <point x="993" y="49"/>
      <point x="851" y="49" type="curve" smooth="yes"/>
      <point x="831" y="49"/>
      <point x="800" y="58"/>
    </contour>
  </outline>
</glyph>
<glyph name="hastroke-cy.sc" format="1">
  <advance width="1160"/>
  <outline>
    <contour>
      <point x="1026" y="700" type="line"/>
      <point x="123" y="700" type="line"/>
      <point x="123" y="637" type="line"/>
      <point x="1026" y="637" type="line"/>
    </contour>
    <contour>
      <point x="140" y="71" type="line"/>
      <point x="17" y="57" type="line"/>
      <point x="17" y="0" type="line"/>
      <point x="458" y="0" type="line"/>
      <point x="458" y="57" type="line"/>
      <point x="325" y="71" type="line"/>
      <point x="488" y="623" type="line"/>
      <point x="656" y="73" type="line"/>
      <point x="555" y="57" type="line"/>
      <point x="555" y="0" type="line"/>
      <point x="1148" y="0" type="line"/>
      <point x="1148" y="57" type="line"/>
      <point x="1062" y="73" type="line"/>
      <point x="739" y="661" type="line"/>
      <point x="1012" y="1219" type="line"/>
      <point x="1140" y="1236" type="line"/>
      <point x="1140" y="1292" type="line"/>
      <point x="710" y="1292" type="line"/>
      <point x="710" y="1236" type="line"/>
      <point x="833" y="1222" type="line"/>
      <point x="665" y="706" type="line"/>
      <point x="512" y="1220" type="line"/>
      <point x="610" y="1236" type="line"/>
      <point x="610" y="1292" type="line"/>
      <point x="15" y="1292" type="line"/>
      <point x="15" y="1236" type="line"/>
      <point x="106" y="1219" type="line"/>
      <point x="408" y="669" type="line"/>
    </contour>
  </outline>
</glyph>
<glyph name="ia-cy.sc" format="1">
  <advance width="1196"/>
  <outline>
    <contour>
      <point x="685" y="581" type="curve"/>
      <point x="685" y="71" type="line"/>
      <point x="559" y="56" type="line"/>
      <point x="559" y="0" type="line"/>
      <point x="1149" y="0" type="line"/>
      <point x="1149" y="56" type="line"/>
      <point x="1035" y="71" type="line"/>
      <point x="1035" y="1222" type="line"/>
      <point x="1143" y="1236" type="line"/>
      <point x="1143" y="1292" type="line"/>
      <point x="872" y="1292" type="line" smooth="yes"/>
      <point x="761" y="1292"/>
      <point x="709" y="1308"/>
      <point x="566" y="1308" type="curve" smooth="yes"/>
      <point x="206" y="1308"/>
      <point x="115" y="1275"/>
      <point x="115" y="928" type="curve" smooth="yes"/>
      <point x="115" y="726"/>
      <point x="184" y="619"/>
      <point x="347" y="577" type="curve"/>
      <point x="129" y="497"/>
      <point x="146" y="88"/>
      <point x="66" y="74" type="curve"/>
      <point x="17" y="56" type="line"/>
      <point x="17" y="0" type="line"/>
      <point x="389" y="0" type="line" smooth="yes"/>
      <point x="444" y="0"/>
      <point x="466" y="478"/>
      <point x="573" y="580" type="curve"/>
      <point x="656" y="582"/>
      <point x="675" y="582"/>
    </contour>
    <contour>
      <point x="685" y="1221" type="curve"/>
      <point x="685" y="660" type="line"/>
      <point x="674" y="658"/>
      <point x="634" y="655"/>
      <point x="631" y="655" type="curve" smooth="yes"/>
      <point x="534" y="655"/>
      <point x="486" y="767"/>
      <point x="486" y="954" type="curve" smooth="yes"/>
      <point x="486" y="1181"/>
      <point x="542" y="1235"/>
      <point x="627" y="1235" type="curve" smooth="yes"/>
      <point x="662" y="1235"/>
      <point x="680" y="1222"/>
    </contour>
  </outline>
</glyph>
<glyph name="ii-cy.sc" format="1">
  <advance width="1363"/>
  <outline>
    <contour>
      <point x="691" y="1264" type="move" name="top"/>
    </contour>
    <contour>
      <point x="1241" y="0" type="move" name="bottomright"/>
    </contour>
    <contour>
      <point x="55" y="1292" type="line"/>
      <point x="55" y="1236" type="line"/>
      <point x="154" y="1221" type="line"/>
      <point x="154" y="72" type="line"/>
      <point x="56" y="57" type="line"/>
      <point x="56" y="0" type="line"/>
      <point x="619" y="0" type="line"/>
      <point x="619" y="57" type="line"/>
      <point x="505" y="74" type="line"/>
      <point x="505" y="148" type="line"/>
      <point x="805" y="847" type="line"/>
      <point x="854" y="1061" type="line"/>
      <point x="854" y="73" type="line"/>
      <point x="750" y="57" type="line"/>
      <point x="750" y="0" type="line"/>
      <point x="1300" y="0" type="line"/>
      <point x="1300" y="57" type="line"/>
      <point x="1203" y="73" type="line"/>
      <point x="1203" y="1222" type="line"/>
      <point x="1302" y="1236" type="line"/>
      <point x="1302" y="1292" type="line"/>
      <point x="750" y="1292" type="line"/>
      <point x="750" y="1236" type="line"/>
      <point x="854" y="1222" type="line"/>
      <point x="854" y="1164" type="line"/>
      <point x="563" y="482" type="line"/>
      <point x="505" y="248" type="line"/>
      <point x="505" y="1222" type="line"/>
      <point x="615" y="1238" type="line"/>
      <point x="615" y="1292" type="line"/>
    </contour>
  </outline>
</glyph>
<glyph name="iishorttail-cy.sc" format="1">
  <advance width="1362"/>
  <outline>
    <contour>
      <point x="1202" y="0" type="move" name="bottomright"/>
    </contour>
    <contour>
      <point x="1317" y="0" type="curve"/>
      <point x="1317" y="72" type="line"/>
      <point x="1167" y="72" type="line"/>
      <point x="1065" y="0" type="line"/>
      <point x="1058" y="0" type="line"/>
      <point x="1038" y="-34"/>
      <point x="1003" y="-327"/>
      <point x="941" y="-295" type="curve"/>
      <point x="1116" y="-295" type="line"/>
      <point x="1159" y="-293"/>
      <point x="1255" y="33"/>
    </contour>
    <contour>
      <point x="529" y="1858" type="curve" smooth="yes"/>
      <point x="314" y="1858" type="line"/>
      <point x="314" y="1849"/>
      <point x="312" y="1840"/>
      <point x="312" y="1834" type="curve" smooth="yes"/>
      <point x="312" y="1630"/>
      <point x="461" y="1475"/>
      <point x="675" y="1475" type="curve" smooth="yes"/>
      <point x="901" y="1475"/>
      <point x="1038" y="1628"/>
      <point x="1038" y="1834" type="curve" smooth="yes"/>
      <point x="1038" y="1843"/>
      <point x="1039" y="1846"/>
      <point x="1037" y="1858" type="curve"/>
      <point x="822" y="1858" type="line" smooth="yes"/>
      <point x="798" y="1858"/>
      <point x="793" y="1836"/>
      <point x="793" y="1804" type="curve" smooth="yes"/>
      <point x="793" y="1694"/>
      <point x="752" y="1556"/>
      <point x="677" y="1556" type="curve" smooth="yes"/>
      <point x="598" y="1556"/>
      <point x="557" y="1694"/>
      <point x="557" y="1804" type="curve" smooth="yes"/>
      <point x="557" y="1836"/>
      <point x="553" y="1858"/>
    </contour>
    <contour>
      <point x="55" y="1292" type="line"/>
      <point x="55" y="1236" type="line"/>
      <point x="154" y="1221" type="line"/>
      <point x="154" y="72" type="line"/>
      <point x="56" y="57" type="line"/>
      <point x="56" y="0" type="line"/>
      <point x="619" y="0" type="line"/>
      <point x="619" y="57" type="line"/>
      <point x="505" y="74" type="line"/>
      <point x="505" y="148" type="line"/>
      <point x="805" y="847" type="line"/>
      <point x="854" y="1061" type="line"/>
      <point x="854" y="73" type="line"/>
      <point x="750" y="57" type="line"/>
      <point x="750" y="0" type="line"/>
      <point x="1300" y="0" type="line"/>
      <point x="1300" y="57" type="line"/>
      <point x="1203" y="73" type="line"/>
      <point x="1203" y="1222" type="line"/>
      <point x="1302" y="1236" type="line"/>
      <point x="1302" y="1292" type="line"/>
      <point x="750" y="1292" type="line"/>
      <point x="750" y="1236" type="line"/>
      <point x="854" y="1222" type="line"/>
      <point x="854" y="1164" type="line"/>
      <point x="563" y="482" type="line"/>
      <point x="505" y="248" type="line"/>
      <point x="505" y="1222" type="line"/>
      <point x="615" y="1238" type="line"/>
      <point x="615" y="1292" type="line"/>
    </contour>
  </outline>
</glyph>
<glyph name="iu-cy.sc" format="1">
  <advance width="1800"/>
  <outline>
    <contour>
      <point x="688" y="702" type="curve"/>
      <point x="512" y="702" type="line"/>
      <point x="512" y="1222" type="line"/>
      <point x="631" y="1236" type="line"/>
      <point x="631" y="1292" type="line"/>
      <point x="51" y="1292" type="line"/>
      <point x="51" y="1236" type="line"/>
      <point x="158" y="1222" type="line"/>
      <point x="158" y="73" type="line"/>
      <point x="50" y="57" type="line"/>
      <point x="50" y="0" type="line"/>
      <point x="633" y="0" type="line"/>
      <point x="633" y="57" type="line"/>
      <point x="513" y="73" type="line"/>
      <point x="513" y="640" type="line"/>
      <point x="688" y="640" type="line"/>
      <point x="706" y="252"/>
      <point x="845" y="-15"/>
      <point x="1212" y="-15" type="curve" smooth="yes"/>
      <point x="1552" y="-15"/>
      <point x="1748" y="227"/>
      <point x="1747" y="655" type="curve" smooth="yes"/>
      <point x="1746" y="1029"/>
      <point x="1620" y="1307"/>
      <point x="1220" y="1306" type="curve" smooth="yes"/>
      <point x="909" y="1306"/>
      <point x="717" y="1088"/>
    </contour>
    <contour>
      <point x="1214" y="1232" type="curve" smooth="yes"/>
      <point x="1305" y="1232"/>
      <point x="1359" y="947"/>
      <point x="1359" y="655" type="curve" smooth="yes"/>
      <point x="1359" y="250"/>
      <point x="1321" y="62"/>
      <point x="1218" y="62" type="curve" smooth="yes"/>
      <point x="1126" y="62"/>
      <point x="1071" y="343"/>
      <point x="1071" y="627" type="curve" smooth="yes"/>
      <point x="1071" y="1050"/>
      <point x="1111" y="1232"/>
    </contour>
  </outline>
</glyph>
<glyph name="izhitsa-cy.sc" format="1">
  <advance width="1260"/>
  <outline>
    <contour>
      <point x="869" y="1080" type="curve"/>
      <point x="724" y="361" type="line"/>
      <point x="706" y="87" type="line"/>
      <point x="685" y="363" type="line"/>
      <point x="504" y="1222" type="line"/>
      <point x="624" y="1236" type="line"/>
      <point x="624" y="1292" type="line"/>
      <point x="26" y="1292" type="line"/>
      <point x="26" y="1236" type="line"/>
      <point x="120" y="1222" type="line"/>
      <point x="497" y="-15" type="line"/>
      <point x="783" y="-15" type="line"/>
      <point x="1051" y="1005" type="line"/>
      <point x="1092" y="1186"/>
      <point x="1147" y="1194"/>
      <point x="1242" y="1194" type="curve" smooth="yes"/>
      <point x="1241" y="1194"/>
      <point x="1242" y="1194"/>
      <point x="1242" y="1194" type="curve"/>
      <point x="1242" y="1282" type="line"/>
      <point x="1222" y="1284"/>
      <point x="1169" y="1290"/>
      <point x="1071" y="1290" type="curve" smooth="yes"/>
      <point x="975" y="1290"/>
      <point x="892" y="1245"/>
    </contour>
  </outline>
</glyph>
<glyph name="ka-cy.sc" format="1">
  <advance width="1197"/>
  <outline>
    <contour>
      <point x="598" y="1264" type="move" name="top"/>
    </contour>
    <contour>
      <point x="598" y="648" type="move" name="center"/>
    </contour>
    <contour>
      <point x="1153" y="0" type="move" name="bottomright"/>
    </contour>
    <contour>
      <point x="777" y="654" type="curve"/>
      <point x="1026" y="1222" type="line"/>
      <point x="1166" y="1236" type="line"/>
      <point x="1166" y="1292" type="line"/>
      <point x="702" y="1292" type="line"/>
      <point x="702" y="1236" type="line"/>
      <point x="790" y="1221" type="line"/>
      <point x="584" y="664" type="line"/>
      <point x="511" y="664" type="line"/>
      <point x="511" y="1222" type="line"/>
      <point x="612" y="1236" type="line"/>
      <point x="612" y="1292" type="line"/>
      <point x="52" y="1292" type="line"/>
      <point x="52" y="1236" type="line"/>
      <point x="159" y="1222" type="line"/>
      <point x="159" y="73" type="line"/>
      <point x="52" y="60" type="line"/>
      <point x="52" y="0" type="line"/>
      <point x="652" y="0" type="line"/>
      <point x="652" y="58" type="line"/>
      <point x="511" y="73" type="line"/>
      <point x="511" y="601" type="line"/>
      <point x="535" y="601" type="line" smooth="yes"/>
      <point x="722" y="601"/>
      <point x="702" y="0"/>
      <point x="838" y="0" type="curve"/>
      <point x="1195" y="0" type="line"/>
      <point x="1195" y="57" type="line"/>
      <point x="1141" y="73" type="line" smooth="yes"/>
      <point x="1064" y="98"/>
      <point x="1038" y="575"/>
    </contour>
  </outline>
</glyph>
<glyph name="kabashkir-cy.sc" format="1">
  <advance width="1481"/>
  <outline>
    <contour>
      <point x="817" y="-144" type="move" name="mark0"/>
    </contour>
    <contour>
      <point x="1099" y="658" type="curve"/>
      <point x="1330" y="1222" type="line"/>
      <point x="1460" y="1236" type="line"/>
      <point x="1460" y="1292" type="line"/>
      <point x="982" y="1292" type="line"/>
      <point x="982" y="1236" type="line"/>
      <point x="1093" y="1221" type="line"/>
      <point x="916" y="674" type="line"/>
      <point x="798" y="674" type="line"/>
      <point x="798" y="1222" type="line"/>
      <point x="896" y="1236" type="line"/>
      <point x="896" y="1292" type="line"/>
      <point x="61" y="1292" type="line"/>
      <point x="38" y="917" type="line"/>
      <point x="227" y="917" type="line"/>
      <point x="290" y="1221" type="line"/>
      <point x="446" y="1235" type="line"/>
      <point x="446" y="73" type="line"/>
      <point x="327" y="57" type="line"/>
      <point x="327" y="0" type="line"/>
      <point x="933" y="0" type="line"/>
      <point x="933" y="58" type="line"/>
      <point x="798" y="71" type="line"/>
      <point x="798" y="595" type="line"/>
      <point x="804" y="595" type="line" smooth="yes"/>
      <point x="994" y="595"/>
      <point x="1024" y="0"/>
      <point x="1178" y="0" type="curve"/>
      <point x="1513" y="0" type="line"/>
      <point x="1513" y="57" type="line"/>
      <point x="1440" y="76" type="line" smooth="yes"/>
      <point x="1373" y="101"/>
      <point x="1309" y="565"/>
    </contour>
  </outline>
</glyph>
<glyph name="kadescender-cy.sc" format="1">
  <advance width="1243"/>
  <outline>
    <contour>
      <point x="775" y="654" type="curve"/>
      <point x="1024" y="1222" type="line"/>
      <point x="1164" y="1236" type="line"/>
      <point x="1164" y="1292" type="line"/>
      <point x="699" y="1292" type="line"/>
      <point x="699" y="1236" type="line"/>
      <point x="787" y="1221" type="line"/>
      <point x="580" y="664" type="line"/>
      <point x="508" y="664" type="line"/>
      <point x="508" y="1222" type="line"/>
      <point x="609" y="1236" type="line"/>
      <point x="609" y="1292" type="line"/>
      <point x="49" y="1292" type="line"/>
      <point x="49" y="1236" type="line"/>
      <point x="156" y="1222" type="line"/>
      <point x="156" y="73" type="line"/>
      <point x="49" y="60" type="line"/>
      <point x="49" y="0" type="line"/>
      <point x="649" y="0" type="line"/>
      <point x="649" y="58" type="line"/>
      <point x="508" y="73" type="line"/>
      <point x="508" y="601" type="line"/>
      <point x="532" y="601" type="line" smooth="yes"/>
      <point x="719" y="601"/>
      <point x="700" y="0"/>
      <point x="834" y="0" type="curve" smooth="yes"/>
      <point x="976" y="0" type="line"/>
      <point x="1002" y="3"/>
      <point x="1042" y="-279"/>
      <point x="1042" y="-297" type="curve"/>
      <point x="1217" y="-297" type="line"/>
      <point x="1223" y="-146"/>
      <point x="1259" y="-38"/>
      <point x="1258" y="73" type="curve"/>
      <point x="1138" y="73" type="line"/>
      <point x="1063" y="108"/>
      <point x="1035" y="575"/>
    </contour>
  </outline>
</glyph>
<glyph name="kahook-cy.sc" format="1">
  <advance width="1220"/>
  <outline>
    <contour>
      <point x="511" y="676" type="curve"/>
      <point x="511" y="1222" type="line"/>
      <point x="612" y="1236" type="line"/>
      <point x="612" y="1292" type="line"/>
      <point x="52" y="1292" type="line"/>
      <point x="52" y="1236" type="line"/>
      <point x="159" y="1222" type="line"/>
      <point x="159" y="73" type="line"/>
      <point x="52" y="60" type="line"/>
      <point x="52" y="0" type="line"/>
      <point x="652" y="0" type="line"/>
      <point x="652" y="58" type="line"/>
      <point x="511" y="73" type="line"/>
      <point x="511" y="616" type="line"/>
      <point x="530" y="637"/>
      <point x="596" y="656"/>
      <point x="673" y="656" type="curve" smooth="yes"/>
      <point x="781" y="656"/>
      <point x="830" y="537"/>
      <point x="830" y="307" type="curve" smooth="yes"/>
      <point x="830" y="-83"/>
      <point x="800" y="-255"/>
      <point x="682" y="-255" type="curve" smooth="yes"/>
      <point x="606" y="-255"/>
      <point x="577" y="-256"/>
      <point x="561" y="-253" type="curve"/>
      <point x="576" y="-329" type="line"/>
      <point x="602" y="-338"/>
      <point x="642" y="-336"/>
      <point x="740" y="-336" type="curve" smooth="yes"/>
      <point x="1006" y="-336"/>
      <point x="1179" y="-49"/>
      <point x="1179" y="309" type="curve" smooth="yes"/>
      <point x="1179" y="532"/>
      <point x="1023" y="732"/>
      <point x="821" y="735" type="curve"/>
      <point x="1041" y="1222" type="line"/>
      <point x="1174" y="1236" type="line"/>
      <point x="1174" y="1292" type="line"/>
      <point x="695" y="1292" type="line"/>
      <point x="695" y="1236" type="line"/>
      <point x="807" y="1222" type="line"/>
      <point x="618" y="730" type="line"/>
      <point x="594" y="716"/>
      <point x="522" y="697"/>
    </contour>
  </outline>
</glyph>
<glyph name="kastroke-cy.sc" format="1">
  <advance width="1205"/>
  <outline>
    <contour>
      <point x="540" y="-144" type="move" name="mark0"/>
    </contour>
    <contour>
      <point x="823" y="654" type="curve"/>
      <point x="1035" y="1222" type="line"/>
      <point x="1175" y="1236" type="line"/>
      <point x="1175" y="1292" type="line"/>
      <point x="710" y="1292" type="line"/>
      <point x="710" y="1236" type="line"/>
      <point x="801" y="1221" type="line"/>
      <point x="630" y="664" type="line"/>
      <point x="518" y="664" type="line"/>
      <point x="518" y="915" type="line"/>
      <point x="646" y="915" type="line"/>
      <point x="646" y="993" type="line"/>
      <point x="518" y="993" type="line"/>
      <point x="518" y="1222" type="line"/>
      <point x="622" y="1236" type="line"/>
      <point x="622" y="1292" type="line"/>
      <point x="59" y="1292" type="line"/>
      <point x="59" y="1236" type="line"/>
      <point x="169" y="1222" type="line"/>
      <point x="169" y="993" type="line"/>
      <point x="47" y="993" type="line"/>
      <point x="47" y="915" type="line"/>
      <point x="169" y="915" type="line"/>
      <point x="169" y="74" type="line"/>
      <point x="59" y="60" type="line"/>
      <point x="59" y="0" type="line"/>
      <point x="661" y="0" type="line"/>
      <point x="661" y="58" type="line"/>
      <point x="518" y="74" type="line"/>
      <point x="518" y="601" type="line"/>
      <point x="582" y="601" type="line" smooth="yes"/>
      <point x="768" y="601"/>
      <point x="712" y="0"/>
      <point x="848" y="0" type="curve" smooth="yes"/>
      <point x="1204" y="0" type="line"/>
      <point x="1204" y="57" type="line"/>
      <point x="1152" y="74" type="line" smooth="yes"/>
      <point x="1074" y="97"/>
      <point x="1086" y="575"/>
    </contour>
  </outline>
</glyph>
<glyph name="kaverticalstroke-cy.sc" format="1">
  <advance width="1335"/>
  <outline>
    <contour>
      <point x="938" y="655" type="curve"/>
      <point x="1142" y="1221" type="line"/>
      <point x="1280" y="1236" type="line"/>
      <point x="1280" y="1292" type="line"/>
      <point x="795" y="1292" type="line"/>
      <point x="795" y="1236" type="line"/>
      <point x="906" y="1219" type="line"/>
      <point x="753" y="674" type="line"/>
      <point x="708" y="674" type="line"/>
      <point x="708" y="964" type="line"/>
      <point x="595" y="964" type="line"/>
      <point x="595" y="674" type="line"/>
      <point x="511" y="674" type="line"/>
      <point x="511" y="1222" type="line"/>
      <point x="612" y="1236" type="line"/>
      <point x="612" y="1292" type="line"/>
      <point x="52" y="1292" type="line"/>
      <point x="52" y="1236" type="line"/>
      <point x="159" y="1222" type="line"/>
      <point x="159" y="73" type="line"/>
      <point x="52" y="60" type="line"/>
      <point x="52" y="0" type="line"/>
      <point x="652" y="0" type="line"/>
      <point x="652" y="58" type="line"/>
      <point x="511" y="73" type="line"/>
      <point x="511" y="595" type="line"/>
      <point x="595" y="595" type="line"/>
      <point x="595" y="314" type="line"/>
      <point x="708" y="314" type="line"/>
      <point x="708" y="593" type="line"/>
      <point x="752" y="593" type="line" smooth="yes"/>
      <point x="885" y="632"/>
      <point x="854" y="0"/>
      <point x="1039" y="0" type="curve" smooth="yes"/>
      <point x="1340" y="2" type="line"/>
      <point x="1340" y="57" type="line"/>
      <point x="1288" y="76" type="line" smooth="yes"/>
      <point x="1221" y="102"/>
      <point x="1162" y="554"/>
    </contour>
  </outline>
</glyph>
<glyph name="komide-cy.sc" format="1">
  <advance width="1130"/>
  <outline>
    <contour>
      <point x="799" y="0" type="curve"/>
      <point x="1081" y="0" type="line"/>
      <point x="1081" y="57" type="line"/>
      <point x="972" y="71" type="line"/>
      <point x="972" y="1230" type="line"/>
      <point x="1081" y="1252" type="line"/>
      <point x="1081" y="1292" type="line"/>
      <point x="435" y="1292" type="line"/>
      <point x="435" y="1252" type="line"/>
      <point x="621" y="1230" type="line"/>
      <point x="621" y="768" type="line"/>
      <point x="594" y="774"/>
      <point x="512" y="784"/>
      <point x="435" y="784" type="curve" smooth="yes"/>
      <point x="155" y="784"/>
      <point x="32" y="657"/>
      <point x="32" y="366" type="curve" smooth="yes"/>
      <point x="32" y="132"/>
      <point x="200" y="-12"/>
      <point x="426" y="-12" type="curve" smooth="yes"/>
      <point x="567" y="-12"/>
      <point x="657" y="-8"/>
    </contour>
    <contour>
      <point x="621" y="699" type="curve"/>
      <point x="621" y="80" type="line"/>
      <point x="601" y="69"/>
      <point x="580" y="66"/>
      <point x="552" y="66" type="curve" smooth="yes"/>
      <point x="428" y="66"/>
      <point x="404" y="158"/>
      <point x="404" y="378" type="curve" smooth="yes"/>
      <point x="404" y="613"/>
      <point x="438" y="717"/>
      <point x="531" y="717" type="curve" smooth="yes"/>
      <point x="575" y="717"/>
      <point x="593" y="708"/>
    </contour>
  </outline>
</glyph>
<glyph name="komidje-cy.sc" format="1">
  <advance width="1747"/>
  <outline>
    <contour>
      <point x="1634" y="287" type="curve" smooth="yes"/>
      <point x="1634" y="613" type="line"/>
      <point x="1735" y="629" type="line"/>
      <point x="1735" y="697" type="line"/>
      <point x="1170" y="697" type="line"/>
      <point x="1170" y="629" type="line"/>
      <point x="1279" y="612" type="line"/>
      <point x="1279" y="328" type="line" smooth="yes"/>
      <point x="1279" y="143"/>
      <point x="1238" y="58"/>
      <point x="1135" y="58" type="curve" smooth="yes"/>
      <point x="1032" y="58"/>
      <point x="973" y="147"/>
      <point x="971" y="333" type="curve" smooth="yes"/>
      <point x="971" y="1229" type="line"/>
      <point x="1078" y="1252" type="line"/>
      <point x="1078" y="1292" type="line"/>
      <point x="459" y="1292" type="line"/>
      <point x="461" y="1252" type="line"/>
      <point x="620" y="1229" type="line"/>
      <point x="620" y="769" type="line"/>
      <point x="593" y="775"/>
      <point x="512" y="785"/>
      <point x="432" y="785" type="curve" smooth="yes"/>
      <point x="154" y="785"/>
      <point x="32" y="656"/>
      <point x="32" y="366" type="curve" smooth="yes"/>
      <point x="32" y="132"/>
      <point x="200" y="-12"/>
      <point x="425" y="-12" type="curve" smooth="yes"/>
      <point x="609" y="-12"/>
      <point x="691" y="-5"/>
      <point x="757" y="59" type="curve"/>
      <point x="840" y="14"/>
      <point x="963" y="-14"/>
      <point x="1120" y="-14" type="curve" smooth="yes"/>
      <point x="1411" y="-14"/>
      <point x="1634" y="109"/>
    </contour>
    <contour>
      <point x="620" y="699" type="curve"/>
      <point x="620" y="293" type="line" smooth="yes"/>
      <point x="620" y="252"/>
      <point x="628" y="195"/>
      <point x="638" y="143" type="curve"/>
      <point x="625" y="88"/>
      <point x="587" y="66"/>
      <point x="551" y="66" type="curve" smooth="yes"/>
      <point x="426" y="66"/>
      <point x="403" y="159"/>
      <point x="403" y="377" type="curve" smooth="yes"/>
      <point x="403" y="613"/>
      <point x="438" y="717"/>
      <point x="529" y="717" type="curve" smooth="yes"/>
      <point x="572" y="717"/>
      <point x="593" y="708"/>
    </contour>
  </outline>
</glyph>
<glyph name="komidzje-cy.sc" format="1">
  <advance width="1182"/>
  <outline>
    <contour>
      <point x="397" y="694" type="curve" smooth="yes"/>
      <point x="317" y="694" type="line"/>
      <point x="317" y="628" type="line"/>
      <point x="407" y="628" type="line" smooth="yes"/>
      <point x="558" y="628"/>
      <point x="579" y="518"/>
      <point x="579" y="328" type="curve" smooth="yes"/>
      <point x="579" y="244"/>
      <point x="525" y="90"/>
      <point x="451" y="89" type="curve"/>
      <point x="451" y="0" type="line"/>
      <point x="888" y="0" type="line"/>
      <point x="899" y="14"/>
      <point x="931" y="-197"/>
      <point x="934" y="-295" type="curve"/>
      <point x="1101" y="-295" type="line"/>
      <point x="1106" y="127"/>
      <point x="1148" y="-72"/>
      <point x="1144" y="84" type="curve"/>
      <point x="921" y="84" type="line"/>
      <point x="940" y="109"/>
      <point x="978" y="221"/>
      <point x="978" y="324" type="curve" smooth="yes"/>
      <point x="978" y="510"/>
      <point x="847" y="686"/>
      <point x="651" y="682" type="curve"/>
      <point x="794" y="709"/>
      <point x="915" y="816"/>
      <point x="915" y="1016" type="curve" smooth="yes"/>
      <point x="915" y="1216"/>
      <point x="759" y="1306"/>
      <point x="460" y="1306" type="curve" smooth="yes"/>
      <point x="342" y="1306"/>
      <point x="130" y="1254"/>
      <point x="65" y="1247" type="curve"/>
      <point x="97" y="1005" type="line"/>
      <point x="284" y="1005" type="line"/>
      <point x="321" y="1153" type="line"/>
      <point x="326" y="1204"/>
      <point x="343" y="1233"/>
      <point x="412" y="1233" type="curve" smooth="yes"/>
      <point x="497" y="1233"/>
      <point x="547" y="1166"/>
      <point x="546" y="989" type="curve"/>
      <point x="546" y="806"/>
      <point x="466" y="694"/>
    </contour>
  </outline>
</glyph>
<glyph name="komilje-cy.sc" format="1">
  <advance width="1872"/>
  <outline>
    <contour>
      <point x="504" y="-144" type="move" name="mark0"/>
    </contour>
    <contour>
      <point x="1758" y="287" type="curve" smooth="yes"/>
      <point x="1758" y="613" type="line"/>
      <point x="1860" y="629" type="line"/>
      <point x="1860" y="699" type="line"/>
      <point x="1294" y="699" type="line"/>
      <point x="1294" y="629" type="line"/>
      <point x="1406" y="613" type="line"/>
      <point x="1406" y="328" type="line" smooth="yes"/>
      <point x="1406" y="143"/>
      <point x="1364" y="58"/>
      <point x="1259" y="58" type="curve" smooth="yes"/>
      <point x="1140" y="58"/>
      <point x="1095" y="141"/>
      <point x="1095" y="333" type="curve" smooth="yes"/>
      <point x="1095" y="1222" type="line"/>
      <point x="1237" y="1236" type="line"/>
      <point x="1237" y="1292" type="line"/>
      <point x="143" y="1292" type="line"/>
      <point x="143" y="1236" type="line"/>
      <point x="347" y="1222" type="line"/>
      <point x="347" y="1045" type="line" smooth="yes"/>
      <point x="347" y="587"/>
      <point x="308" y="310"/>
      <point x="270" y="175" type="curve"/>
      <point x="243" y="139"/>
      <point x="218" y="112"/>
      <point x="173" y="112" type="curve" smooth="yes"/>
      <point x="123" y="112"/>
      <point x="96" y="116"/>
      <point x="52" y="120" type="curve"/>
      <point x="71" y="0" type="line"/>
      <point x="108" y="-2"/>
      <point x="154" y="-9"/>
      <point x="208" y="-9" type="curve" smooth="yes"/>
      <point x="298" y="-9"/>
      <point x="351" y="25"/>
      <point x="391" y="105" type="curve" smooth="yes"/>
      <point x="465" y="267"/>
      <point x="494" y="593"/>
      <point x="494" y="1032" type="curve" smooth="yes"/>
      <point x="494" y="1222" type="line"/>
      <point x="745" y="1222" type="line"/>
      <point x="745" y="293" type="line" smooth="yes"/>
      <point x="745" y="104"/>
      <point x="878" y="-14"/>
      <point x="1246" y="-14" type="curve" smooth="yes"/>
      <point x="1534" y="-14"/>
      <point x="1758" y="109"/>
    </contour>
  </outline>
</glyph>
<glyph name="komisje-cy.sc" format="1">
  <advance width="1236"/>
  <outline>
    <contour>
      <point x="603" y="-144" type="move" name="mark0"/>
    </contour>
    <contour>
      <point x="1116" y="287" type="curve" smooth="yes"/>
      <point x="1116" y="613" type="line"/>
      <point x="1217" y="630" type="line"/>
      <point x="1217" y="699" type="line"/>
      <point x="684" y="699" type="line"/>
      <point x="684" y="630" type="line"/>
      <point x="795" y="613" type="line"/>
      <point x="795" y="329" type="line" smooth="yes"/>
      <point x="795" y="143"/>
      <point x="754" y="59"/>
      <point x="654" y="58" type="curve" smooth="yes"/>
      <point x="519" y="58"/>
      <point x="450" y="381"/>
      <point x="450" y="668" type="curve" smooth="yes"/>
      <point x="450" y="1038"/>
      <point x="520" y="1233"/>
      <point x="680" y="1233" type="curve" smooth="yes"/>
      <point x="757" y="1233"/>
      <point x="779" y="1201"/>
      <point x="801" y="1182" type="curve"/>
      <point x="851" y="980" type="line"/>
      <point x="1100" y="980" type="line"/>
      <point x="1121" y="1252" type="line"/>
      <point x="1059" y="1264"/>
      <point x="856" y="1306"/>
      <point x="685" y="1306" type="curve" smooth="yes"/>
      <point x="294" y="1306"/>
      <point x="44" y="1048"/>
      <point x="44" y="629" type="curve" smooth="yes"/>
      <point x="44" y="289"/>
      <point x="264" y="-14"/>
      <point x="642" y="-14" type="curve" smooth="yes"/>
      <point x="912" y="-14"/>
      <point x="1116" y="108"/>
    </contour>
  </outline>
</glyph>
<glyph name="komitje-cy.sc" format="1">
  <advance width="1558"/>
  <outline>
    <contour>
      <point x="716" y="-144" type="move" name="mark0"/>
    </contour>
    <contour>
      <point x="782" y="333" type="curve" smooth="yes"/>
      <point x="782" y="1232" type="line"/>
      <point x="955" y="1231" type="line"/>
      <point x="1014" y="892" type="line"/>
      <point x="1202" y="892" type="line"/>
      <point x="1171" y="1292" type="line"/>
      <point x="50" y="1292" type="line"/>
      <point x="30" y="892" type="line"/>
      <point x="197" y="892" type="line"/>
      <point x="258" y="1231" type="line"/>
      <point x="431" y="1232" type="line"/>
      <point x="431" y="293" type="line" smooth="yes"/>
      <point x="431" y="105"/>
      <point x="565" y="-14"/>
      <point x="932" y="-14" type="curve" smooth="yes"/>
      <point x="1220" y="-14"/>
      <point x="1442" y="106"/>
      <point x="1442" y="287" type="curve" smooth="yes"/>
      <point x="1442" y="613" type="line"/>
      <point x="1545" y="630" type="line"/>
      <point x="1545" y="699" type="line"/>
      <point x="979" y="699" type="line"/>
      <point x="979" y="630" type="line"/>
      <point x="1091" y="613" type="line"/>
      <point x="1091" y="329" type="line" smooth="yes"/>
      <point x="1091" y="146"/>
      <point x="1048" y="58"/>
      <point x="943" y="58" type="curve" smooth="yes"/>
      <point x="824" y="58"/>
      <point x="782" y="147"/>
    </contour>
  </outline>
</glyph>
<glyph name="komizje-cy.sc" format="1">
  <advance width="1757"/>
  <outline>
    <contour>
      <point x="1647" y="287" type="curve" smooth="yes"/>
      <point x="1647" y="613" type="line"/>
      <point x="1744" y="630" type="line"/>
      <point x="1744" y="696" type="line"/>
      <point x="1181" y="696" type="line"/>
      <point x="1181" y="630" type="line"/>
      <point x="1292" y="613" type="line"/>
      <point x="1292" y="329" type="line" smooth="yes"/>
      <point x="1292" y="146"/>
      <point x="1251" y="58"/>
      <point x="1145" y="58" type="curve" smooth="yes"/>
      <point x="1039" y="58"/>
      <point x="983" y="122"/>
      <point x="983" y="333" type="curve" smooth="yes"/>
      <point x="983" y="542"/>
      <point x="845" y="684"/>
      <point x="641" y="682" type="curve"/>
      <point x="783" y="712"/>
      <point x="915" y="815"/>
      <point x="915" y="1016" type="curve" smooth="yes"/>
      <point x="915" y="1216"/>
      <point x="759" y="1306"/>
      <point x="460" y="1306" type="curve" smooth="yes"/>
      <point x="342" y="1306"/>
      <point x="130" y="1254"/>
      <point x="65" y="1247" type="curve"/>
      <point x="97" y="1005" type="line"/>
      <point x="284" y="1005" type="line"/>
      <point x="321" y="1153" type="line"/>
      <point x="326" y="1204"/>
      <point x="343" y="1233"/>
      <point x="412" y="1233" type="curve" smooth="yes"/>
      <point x="497" y="1233"/>
      <point x="547" y="1166"/>
      <point x="546" y="989" type="curve"/>
      <point x="546" y="806"/>
      <point x="466" y="694"/>
      <point x="397" y="694" type="curve" smooth="yes"/>
      <point x="317" y="694" type="line"/>
      <point x="317" y="628" type="line"/>
      <point x="408" y="628" type="line" smooth="yes"/>
      <point x="555" y="628"/>
      <point x="579" y="498"/>
      <point x="579" y="293" type="curve" smooth="yes"/>
      <point x="579" y="114"/>
      <point x="785" y="-14"/>
      <point x="1134" y="-14" type="curve" smooth="yes"/>
      <point x="1425" y="-14"/>
      <point x="1647" y="106"/>
    </contour>
  </outline>
</glyph>
<glyph name="lje-cy.sc" format="1">
  <advance width="1712"/>
  <outline>
    <contour>
      <point x="529" y="-144" type="move" name="mark0"/>
    </contour>
    <contour>
      <point x="1094" y="711" type="curve"/>
      <point x="1094" y="1222" type="line"/>
      <point x="1235" y="1236" type="line"/>
      <point x="1235" y="1292" type="line"/>
      <point x="153" y="1292" type="line"/>
      <point x="153" y="1236" type="line"/>
      <point x="349" y="1221" type="line"/>
      <point x="349" y="1046" type="line" smooth="yes"/>
      <point x="349" y="591"/>
      <point x="310" y="307"/>
      <point x="273" y="171" type="curve"/>
      <point x="249" y="129"/>
      <point x="226" y="111"/>
      <point x="176" y="111" type="curve" smooth="yes"/>
      <point x="124" y="111"/>
      <point x="97" y="115"/>
      <point x="52" y="120" type="curve"/>
      <point x="74" y="0" type="line"/>
      <point x="112" y="-2"/>
      <point x="157" y="-8"/>
      <point x="211" y="-8" type="curve" smooth="yes"/>
      <point x="297" y="-8"/>
      <point x="352" y="25"/>
      <point x="394" y="101" type="curve" smooth="yes"/>
      <point x="468" y="267"/>
      <point x="497" y="585"/>
      <point x="497" y="1033" type="curve" smooth="yes"/>
      <point x="497" y="1223" type="line"/>
      <point x="746" y="1223" type="line"/>
      <point x="747" y="73" type="line"/>
      <point x="583" y="57" type="line"/>
      <point x="583" y="0" type="line"/>
      <point x="930" y="0" type="line" smooth="yes"/>
      <point x="996" y="0"/>
      <point x="1244" y="-14"/>
      <point x="1281" y="-14" type="curve" smooth="yes"/>
      <point x="1543" y="-14"/>
      <point x="1683" y="115"/>
      <point x="1683" y="379" type="curve" smooth="yes"/>
      <point x="1683" y="600"/>
      <point x="1564" y="732"/>
      <point x="1288" y="732" type="curve" smooth="yes"/>
      <point x="1237" y="732"/>
      <point x="1110" y="721"/>
    </contour>
    <contour>
      <point x="1094" y="65" type="curve"/>
      <point x="1094" y="638" type="line"/>
      <point x="1104" y="645"/>
      <point x="1156" y="651"/>
      <point x="1185" y="651" type="curve" smooth="yes"/>
      <point x="1290" y="651"/>
      <point x="1326" y="558"/>
      <point x="1326" y="370" type="curve" smooth="yes"/>
      <point x="1326" y="148"/>
      <point x="1309" y="49"/>
      <point x="1162" y="49" type="curve" smooth="yes"/>
      <point x="1139" y="49"/>
      <point x="1112" y="55"/>
    </contour>
  </outline>
</glyph>
<glyph name="nje-cy.sc" format="1">
  <advance width="1799"/>
  <outline>
    <contour>
      <point x="629" y="-144" type="move" name="mark0"/>
    </contour>
    <contour>
      <point x="1377" y="733" type="curve" smooth="yes"/>
      <point x="1183" y="733" type="line"/>
      <point x="1183" y="1220" type="line"/>
      <point x="1290" y="1240" type="line"/>
      <point x="1290" y="1292" type="line"/>
      <point x="712" y="1292" type="line"/>
      <point x="712" y="1240" type="line"/>
      <point x="833" y="1221" type="line"/>
      <point x="833" y="702" type="line"/>
      <point x="510" y="702" type="line"/>
      <point x="510" y="1222" type="line"/>
      <point x="637" y="1236" type="line"/>
      <point x="637" y="1292" type="line"/>
      <point x="51" y="1292" type="line"/>
      <point x="51" y="1236" type="line"/>
      <point x="158" y="1221" type="line"/>
      <point x="158" y="71" type="line"/>
      <point x="50" y="57" type="line"/>
      <point x="50" y="0" type="line"/>
      <point x="634" y="0" type="line"/>
      <point x="634" y="57" type="line"/>
      <point x="510" y="69" type="line"/>
      <point x="510" y="631" type="line"/>
      <point x="833" y="631" type="line"/>
      <point x="833" y="69" type="line"/>
      <point x="712" y="57" type="line"/>
      <point x="712" y="0" type="line"/>
      <point x="1029" y="0" type="line" smooth="yes"/>
      <point x="1093" y="0"/>
      <point x="1351" y="-20"/>
      <point x="1381" y="-20" type="curve" smooth="yes"/>
      <point x="1609" y="-20"/>
      <point x="1774" y="95"/>
      <point x="1774" y="380" type="curve" smooth="yes"/>
      <point x="1774" y="602"/>
      <point x="1615" y="733"/>
    </contour>
    <contour>
      <point x="1183" y="80" type="curve"/>
      <point x="1183" y="650" type="line"/>
      <point x="1274" y="650" type="line" smooth="yes"/>
      <point x="1359" y="650"/>
      <point x="1414" y="548"/>
      <point x="1414" y="371" type="curve" smooth="yes"/>
      <point x="1414" y="147"/>
      <point x="1398" y="55"/>
      <point x="1251" y="55" type="curve" smooth="yes"/>
      <point x="1224" y="55"/>
      <point x="1197" y="75"/>
    </contour>
  </outline>
</glyph>
<glyph name="obarred-cy.sc" format="1">
  <advance width="1169"/>
  <outline>
    <contour>
      <point x="593" y="1264" type="move" name="top"/>
    </contour>
    <contour>
      <point x="581" y="-144" type="move" name="mark0"/>
    </contour>
    <contour>
      <point x="590" y="1306" type="curve" smooth="yes"/>
      <point x="246" y="1306"/>
      <point x="46" y="1046"/>
      <point x="46" y="633" type="curve" smooth="yes"/>
      <point x="46" y="247"/>
      <point x="184" y="-28"/>
      <point x="580" y="-20" type="curve" smooth="yes"/>
      <point x="927" y="-12"/>
      <point x="1123" y="244"/>
      <point x="1123" y="654" type="curve" smooth="yes"/>
      <point x="1123" y="1047"/>
      <point x="992" y="1307"/>
    </contour>
    <contour>
      <point x="433" y="614" type="curve"/>
      <point x="737" y="614" type="line"/>
      <point x="728" y="239"/>
      <point x="675" y="48"/>
      <point x="584" y="48" type="curve" smooth="yes"/>
      <point x="499" y="48"/>
      <point x="437" y="308"/>
    </contour>
    <contour>
      <point x="739" y="685" type="curve"/>
      <point x="434" y="685" type="line"/>
      <point x="438" y="1042"/>
      <point x="490" y="1238"/>
      <point x="587" y="1238" type="curve" smooth="yes"/>
      <point x="674" y="1238"/>
      <point x="733" y="984"/>
    </contour>
  </outline>
</glyph>
<glyph name="pe-cy.sc" format="1">
  <advance width="1315"/>
  <outline>
    <contour>
      <point x="833" y="0" type="move" name="bottomright"/>
    </contour>
    <contour>
      <point x="49" y="1292" type="line"/>
      <point x="49" y="1236" type="line"/>
      <point x="159" y="1222" type="line"/>
      <point x="159" y="71" type="line"/>
      <point x="50" y="57" type="line"/>
      <point x="50" y="0" type="line"/>
      <point x="613" y="0" type="line"/>
      <point x="613" y="57" type="line"/>
      <point x="511" y="71" type="line"/>
      <point x="511" y="1215" type="line"/>
      <point x="805" y="1215" type="line"/>
      <point x="805" y="74" type="line"/>
      <point x="707" y="57" type="line"/>
      <point x="707" y="0" type="line"/>
      <point x="1268" y="0" type="line"/>
      <point x="1268" y="57" type="line"/>
      <point x="1154" y="73" type="line"/>
      <point x="1154" y="1218" type="line"/>
      <point x="1264" y="1238" type="line"/>
      <point x="1264" y="1292" type="line"/>
    </contour>
  </outline>
</glyph>
<glyph name="pedescender-cy.sc" format="1">
  <advance width="1349"/>
  <outline>
    <contour>
      <point x="1322" y="73" type="curve"/>
      <point x="1154" y="73" type="line"/>
      <point x="1154" y="1218" type="line"/>
      <point x="1264" y="1238" type="line"/>
      <point x="1264" y="1292" type="line"/>
      <point x="49" y="1292" type="line"/>
      <point x="49" y="1236" type="line"/>
      <point x="159" y="1222" type="line"/>
      <point x="159" y="71" type="line"/>
      <point x="50" y="57" type="line"/>
      <point x="50" y="0" type="line"/>
      <point x="613" y="0" type="line"/>
      <point x="613" y="57" type="line"/>
      <point x="511" y="71" type="line"/>
      <point x="511" y="1215" type="line"/>
      <point x="805" y="1215" type="line"/>
      <point x="805" y="74" type="line"/>
      <point x="707" y="57" type="line"/>
      <point x="707" y="0" type="line"/>
      <point x="1041" y="0" type="line"/>
      <point x="1068" y="-3"/>
      <point x="1106" y="-272"/>
      <point x="1107" y="-297" type="curve"/>
      <point x="1284" y="-297" type="line"/>
      <point x="1292" y="-301"/>
      <point x="1322" y="120"/>
    </contour>
  </outline>
</glyph>
<glyph name="pemiddlehook-cy.sc" format="1">
  <advance width="1859"/>
  <outline>
    <contour>
      <point x="614" y="-144" type="move" name="mark0"/>
    </contour>
    <contour>
      <point x="1154" y="685" type="curve"/>
      <point x="1154" y="1218" type="line"/>
      <point x="1264" y="1238" type="line"/>
      <point x="1264" y="1292" type="line"/>
      <point x="49" y="1292" type="line"/>
      <point x="49" y="1236" type="line"/>
      <point x="159" y="1222" type="line"/>
      <point x="159" y="71" type="line"/>
      <point x="50" y="57" type="line"/>
      <point x="50" y="0" type="line"/>
      <point x="613" y="0" type="line"/>
      <point x="613" y="57" type="line"/>
      <point x="511" y="71" type="line"/>
      <point x="511" y="1215" type="line"/>
      <point x="805" y="1215" type="line"/>
      <point x="805" y="74" type="line"/>
      <point x="707" y="57" type="line"/>
      <point x="707" y="0" type="line"/>
      <point x="1268" y="0" type="line"/>
      <point x="1268" y="57" type="line"/>
      <point x="1154" y="73" type="line"/>
      <point x="1154" y="622" type="line"/>
      <point x="1180" y="643"/>
      <point x="1240" y="656"/>
      <point x="1317" y="656" type="curve" smooth="yes"/>
      <point x="1425" y="656"/>
      <point x="1467" y="537"/>
      <point x="1467" y="307" type="curve" smooth="yes"/>
      <point x="1467" y="-64"/>
      <point x="1407" y="-257"/>
      <point x="1305" y="-257" type="curve" smooth="yes"/>
      <point x="1207" y="-257"/>
      <point x="1181" y="-262"/>
      <point x="1163" y="-257" type="curve"/>
      <point x="1178" y="-331" type="line"/>
      <point x="1205" y="-340"/>
      <point x="1261" y="-338"/>
      <point x="1357" y="-338" type="curve" smooth="yes"/>
      <point x="1622" y="-338"/>
      <point x="1816" y="-39"/>
      <point x="1816" y="302" type="curve" smooth="yes"/>
      <point x="1816" y="518"/>
      <point x="1636" y="737"/>
      <point x="1398" y="737" type="curve" smooth="yes"/>
      <point x="1319" y="737"/>
      <point x="1192" y="711"/>
    </contour>
  </outline>
</glyph>
<glyph name="reversedze-cy.sc" format="1">
  <advance width="1024"/>
  <outline>
    <contour>
      <point x="954" y="46" type="curve"/>
      <point x="944" y="255" type="line"/>
      <point x="774" y="272" type="line"/>
      <point x="700" y="122" type="line"/>
      <point x="685" y="82"/>
      <point x="639" y="52"/>
      <point x="586" y="52" type="curve" smooth="yes"/>
      <point x="479" y="52"/>
      <point x="446" y="143"/>
      <point x="446" y="339" type="curve" smooth="yes"/>
      <point x="446" y="469"/>
      <point x="477" y="637"/>
      <point x="596" y="637" type="curve"/>
      <point x="723" y="631" type="line"/>
      <point x="723" y="716" type="line"/>
      <point x="611" y="702" type="line"/>
      <point x="516" y="702"/>
      <point x="443" y="761"/>
      <point x="443" y="952" type="curve" smooth="yes"/>
      <point x="443" y="1130"/>
      <point x="512" y="1236"/>
      <point x="603" y="1236" type="curve" smooth="yes"/>
      <point x="665" y="1236"/>
      <point x="691" y="1202"/>
      <point x="695" y="1182" type="curve"/>
      <point x="743" y="994" type="line"/>
      <point x="930" y="994" type="line"/>
      <point x="951" y="1251" type="line"/>
      <point x="885" y="1272"/>
      <point x="694" y="1306"/>
      <point x="550" y="1306" type="curve" smooth="yes"/>
      <point x="233" y="1306"/>
      <point x="76" y="1185"/>
      <point x="76" y="974" type="curve" smooth="yes"/>
      <point x="76" y="779"/>
      <point x="191" y="697"/>
      <point x="353" y="672" type="curve"/>
      <point x="156" y="662"/>
      <point x="48" y="518"/>
      <point x="48" y="326" type="curve" smooth="yes"/>
      <point x="48" y="113"/>
      <point x="134" y="-20"/>
      <point x="563" y="-20" type="curve" smooth="yes"/>
      <point x="766" y="-20"/>
      <point x="875" y="43"/>
    </contour>
  </outline>
</glyph>
<glyph name="semisoftsign-cy.sc" format="1">
  <advance width="1134"/>
  <outline>
    <contour>
      <point x="510" y="791" type="curve"/>
      <point x="510" y="955" type="line"/>
      <point x="729" y="955" type="line"/>
      <point x="729" y="1025" type="line"/>
      <point x="510" y="1025" type="line"/>
      <point x="510" y="1221" type="line"/>
      <point x="684" y="1240" type="line"/>
      <point x="684" y="1292" type="line"/>
      <point x="52" y="1292" type="line"/>
      <point x="52" y="1240" type="line"/>
      <point x="158" y="1220" type="line"/>
      <point x="158" y="1025" type="line"/>
      <point x="31" y="1025" type="line"/>
      <point x="31" y="955" type="line"/>
      <point x="158" y="955" type="line"/>
      <point x="158" y="71" type="line"/>
      <point x="51" y="57" type="line"/>
      <point x="51" y="0" type="line"/>
      <point x="298" y="0" type="line" smooth="yes"/>
      <point x="464" y="0"/>
      <point x="548" y="-14"/>
      <point x="683" y="-14" type="curve" smooth="yes"/>
      <point x="910" y="-14"/>
      <point x="1105" y="126"/>
      <point x="1105" y="408" type="curve" smooth="yes"/>
      <point x="1105" y="650"/>
      <point x="982" y="791"/>
      <point x="708" y="791" type="curve"/>
      <point x="691" y="791"/>
      <point x="509" y="790"/>
    </contour>
    <contour>
      <point x="510" y="69" type="curve"/>
      <point x="510" y="713" type="line"/>
      <point x="506" y="713"/>
      <point x="599" y="711"/>
      <point x="602" y="711" type="curve" smooth="yes"/>
      <point x="706" y="711"/>
      <point x="742" y="611"/>
      <point x="742" y="401" type="curve" smooth="yes"/>
      <point x="742" y="155"/>
      <point x="726" y="54"/>
      <point x="580" y="54" type="curve" smooth="yes"/>
      <point x="557" y="54"/>
      <point x="528" y="61"/>
    </contour>
  </outline>
</glyph>
<glyph name="sha-cy.sc" format="1">
  <advance width="1911"/>
  <outline>
    <contour>
      <point x="579" y="-144" type="move" name="mark0"/>
    </contour>
    <contour>
      <point x="50" y="1292" type="line"/>
      <point x="50" y="1236" type="line"/>
      <point x="159" y="1221" type="line"/>
      <point x="159" y="73" type="line"/>
      <point x="49" y="57" type="line"/>
      <point x="49" y="0" type="line"/>
      <point x="1863" y="0" type="line"/>
      <point x="1863" y="57" type="line"/>
      <point x="1753" y="74" type="line"/>
      <point x="1753" y="1221" type="line"/>
      <point x="1862" y="1236" type="line"/>
      <point x="1862" y="1292" type="line"/>
      <point x="1300" y="1292" type="line"/>
      <point x="1300" y="1236" type="line"/>
      <point x="1403" y="1222" type="line"/>
      <point x="1403" y="71" type="line"/>
      <point x="1134" y="71" type="line"/>
      <point x="1134" y="1221" type="line"/>
      <point x="1239" y="1236" type="line"/>
      <point x="1239" y="1292" type="line"/>
      <point x="676" y="1292" type="line"/>
      <point x="676" y="1236" type="line"/>
      <point x="783" y="1221" type="line"/>
      <point x="783" y="71" type="line"/>
      <point x="510" y="71" type="line"/>
      <point x="510" y="1218" type="line"/>
      <point x="609" y="1236" type="line"/>
      <point x="609" y="1292" type="line"/>
    </contour>
  </outline>
</glyph>
<glyph name="shcha-cy.sc" format="1">
  <advance width="1963"/>
  <outline>
    <contour>
      <point x="1933" y="73" type="curve"/>
      <point x="1753" y="73" type="line"/>
      <point x="1753" y="1221" type="line"/>
      <point x="1862" y="1236" type="line"/>
      <point x="1862" y="1292" type="line"/>
      <point x="1300" y="1292" type="line"/>
      <point x="1300" y="1236" type="line"/>
      <point x="1403" y="1222" type="line"/>
      <point x="1403" y="71" type="line"/>
      <point x="1134" y="71" type="line"/>
      <point x="1134" y="1221" type="line"/>
      <point x="1239" y="1236" type="line"/>
      <point x="1239" y="1292" type="line"/>
      <point x="676" y="1292" type="line"/>
      <point x="676" y="1236" type="line"/>
      <point x="783" y="1221" type="line"/>
      <point x="783" y="71" type="line"/>
      <point x="510" y="71" type="line"/>
      <point x="510" y="1221" type="line"/>
      <point x="609" y="1236" type="line"/>
      <point x="609" y="1292" type="line"/>
      <point x="50" y="1292" type="line"/>
      <point x="50" y="1236" type="line"/>
      <point x="159" y="1221" type="line"/>
      <point x="159" y="73" type="line"/>
      <point x="49" y="57" type="line"/>
      <point x="49" y="0" type="line"/>
      <point x="1651" y="0" type="line"/>
      <point x="1680" y="2"/>
      <point x="1718" y="-279"/>
      <point x="1719" y="-297" type="curve"/>
      <point x="1894" y="-297" type="line"/>
      <point x="1900" y="-116"/>
      <point x="1934" y="-37"/>
    </contour>
  </outline>
</glyph>
<glyph name="shha-cy.sc" format="1">
  <advance width="1236"/>
  <outline>
    <contour>
      <point x="41" y="1124" type="move" name="topleft"/>
    </contour>
    <contour>
      <point x="617" y="476" type="move" name="center"/>
    </contour>
    <contour>
      <point x="630" y="-168" type="move" name="bottom"/>
    </contour>
    <contour>
      <point x="506" y="695" type="curve"/>
      <point x="506" y="1218" type="line"/>
      <point x="675" y="1235" type="line"/>
      <point x="675" y="1292" type="line"/>
      <point x="46" y="1292" type="line"/>
      <point x="46" y="1234" type="line"/>
      <point x="156" y="1218" type="line"/>
      <point x="156" y="73" type="line"/>
      <point x="47" y="56" type="line"/>
      <point x="47" y="0" type="line"/>
      <point x="614" y="0" type="line"/>
      <point x="614" y="56" type="line"/>
      <point x="506" y="71" type="line"/>
      <point x="506" y="633" type="line"/>
      <point x="533" y="660"/>
      <point x="579" y="689"/>
      <point x="637" y="689" type="curve" smooth="yes"/>
      <point x="750" y="689"/>
      <point x="770" y="638"/>
      <point x="770" y="326" type="curve" smooth="yes"/>
      <point x="770" y="74" type="line"/>
      <point x="683" y="56" type="line"/>
      <point x="683" y="0" type="line"/>
      <point x="1202" y="0" type="line"/>
      <point x="1202" y="56" type="line"/>
      <point x="1120" y="73" type="line"/>
      <point x="1120" y="370" type="line" smooth="yes"/>
      <point x="1120" y="622"/>
      <point x="1021" y="769"/>
      <point x="757" y="769" type="curve" smooth="yes"/>
      <point x="678" y="769"/>
      <point x="576" y="741"/>
    </contour>
  </outline>
</glyph>
<glyph name="shhadescender-cy.sc" format="1">
  <advance width="1333"/>
  <outline>
    <contour>
      <point x="62" y="1292" type="move" name="topleft"/>
    </contour>
    <contour>
      <point x="639" y="646" type="move" name="center"/>
    </contour>
    <contour>
      <point x="650" y="0" type="move" name="bottom"/>
    </contour>
    <contour>
      <point x="67" y="0" type="line"/>
      <point x="634" y="0" type="line"/>
      <point x="634" y="55" type="line"/>
      <point x="526" y="73" type="line"/>
      <point x="526" y="634" type="line"/>
      <point x="554" y="660"/>
      <point x="598" y="691"/>
      <point x="658" y="691" type="curve" smooth="yes"/>
      <point x="770" y="691"/>
      <point x="790" y="641"/>
      <point x="790" y="328" type="curve" smooth="yes"/>
      <point x="790" y="76" type="line"/>
      <point x="705" y="58" type="line"/>
      <point x="705" y="0" type="line"/>
      <point x="1021" y="0" type="line"/>
      <point x="1050" y="-3"/>
      <point x="1084" y="-275"/>
      <point x="1088" y="-297" type="curve"/>
      <point x="1265" y="-297" type="line"/>
      <point x="1274" y="-301"/>
      <point x="1302" y="122"/>
      <point x="1302" y="73" type="curve"/>
      <point x="1143" y="75" type="line"/>
      <point x="1143" y="370" type="line"/>
      <point x="1143" y="674"/>
      <point x="1044" y="769"/>
      <point x="778" y="769" type="curve" smooth="yes"/>
      <point x="688" y="769"/>
      <point x="593" y="744"/>
      <point x="526" y="697" type="curve"/>
      <point x="526" y="1221" type="line"/>
      <point x="695" y="1235" type="line"/>
      <point x="695" y="1292" type="line"/>
      <point x="68" y="1292" type="line"/>
      <point x="68" y="1237" type="line"/>
      <point x="177" y="1221" type="line"/>
      <point x="177" y="72" type="line"/>
      <point x="67" y="55" type="line"/>
    </contour>
  </outline>
</glyph>
<glyph name="tedescender-cy.sc" format="1">
  <advance width="1215"/>
  <outline>
    <contour>
      <point x="1050" y="73" type="curve"/>
      <point x="795" y="73" type="line"/>
      <point x="795" y="1234" type="line"/>
      <point x="913" y="1224" type="line"/>
      <point x="994" y="886" type="line"/>
      <point x="1168" y="886" type="line"/>
      <point x="1147" y="1292" type="line"/>
      <point x="78" y="1292" type="line"/>
      <point x="54" y="886" type="line"/>
      <point x="237" y="886" type="line"/>
      <point x="316" y="1224" type="line"/>
      <point x="443" y="1234" type="line"/>
      <point x="443" y="73" type="line"/>
      <point x="250" y="57" type="line"/>
      <point x="250" y="0" type="line"/>
      <point x="802" y="0" type="line"/>
      <point x="818" y="-112"/>
      <point x="834" y="-176"/>
      <point x="833" y="-297" type="curve"/>
      <point x="1009" y="-297" type="line"/>
      <point x="1015" y="-127"/>
      <point x="1052" y="-79"/>
    </contour>
  </outline>
</glyph>
<glyph name="tetse-cy.sc" format="1">
  <advance width="1864"/>
  <outline>
    <contour>
      <point x="1862" y="73" type="curve"/>
      <point x="1684" y="73" type="line"/>
      <point x="1684" y="1222" type="line"/>
      <point x="1792" y="1236" type="line"/>
      <point x="1792" y="1292" type="line"/>
      <point x="1229" y="1292" type="line"/>
      <point x="1229" y="1236" type="line"/>
      <point x="1337" y="1222" type="line"/>
      <point x="1337" y="77" type="line"/>
      <point x="772" y="77" type="line"/>
      <point x="772" y="1227" type="line"/>
      <point x="911" y="1222" type="line"/>
      <point x="980" y="901" type="line"/>
      <point x="1141" y="901" type="line"/>
      <point x="1111" y="1292" type="line"/>
      <point x="59" y="1292" type="line"/>
      <point x="43" y="901" type="line"/>
      <point x="204" y="901" type="line"/>
      <point x="259" y="1222" type="line"/>
      <point x="419" y="1226" type="line"/>
      <point x="419" y="71" type="line"/>
      <point x="236" y="57" type="line"/>
      <point x="236" y="0" type="line"/>
      <point x="1574" y="0" type="line"/>
      <point x="1601" y="2"/>
      <point x="1647" y="-259"/>
      <point x="1647" y="-289" type="curve"/>
      <point x="1825" y="-289" type="line"/>
      <point x="1830" y="-123"/>
      <point x="1863" y="-54"/>
    </contour>
  </outline>
</glyph>
<glyph name="tse-cy.sc" format="1">
  <advance width="1353"/>
  <outline>
    <contour>
      <point x="1323" y="73" type="curve"/>
      <point x="1155" y="73" type="line"/>
      <point x="1155" y="1221" type="line"/>
      <point x="1265" y="1236" type="line"/>
      <point x="1265" y="1292" type="line"/>
      <point x="697" y="1292" type="line"/>
      <point x="697" y="1236" type="line"/>
      <point x="805" y="1221" type="line"/>
      <point x="805" y="77" type="line"/>
      <point x="510" y="77" type="line"/>
      <point x="510" y="1222" type="line"/>
      <point x="632" y="1236" type="line"/>
      <point x="632" y="1292" type="line"/>
      <point x="51" y="1292" type="line"/>
      <point x="51" y="1236" type="line"/>
      <point x="159" y="1221" type="line"/>
      <point x="159" y="76" type="line"/>
      <point x="48" y="56" type="line"/>
      <point x="48" y="0" type="line"/>
      <point x="1042" y="0" type="line"/>
      <point x="1071" y="-3"/>
      <point x="1106" y="-280"/>
      <point x="1108" y="-297" type="curve"/>
      <point x="1285" y="-297" type="line"/>
      <point x="1294" y="-303"/>
      <point x="1323" y="122"/>
    </contour>
  </outline>
</glyph>
<glyph name="tshe-cy.sc" format="1">
  <advance width="1558"/>
  <outline>
    <contour>
      <point x="631" y="-144" type="move" name="mark0"/>
    </contour>
    <contour>
      <point x="779" y="657" type="curve"/>
      <point x="779" y="1232" type="line"/>
      <point x="942" y="1223" type="line"/>
      <point x="1020" y="891" type="line"/>
      <point x="1187" y="891" type="line"/>
      <point x="1152" y="1292" type="line"/>
      <point x="52" y="1292" type="line"/>
      <point x="30" y="891" type="line"/>
      <point x="207" y="891" type="line"/>
      <point x="258" y="1221" type="line"/>
      <point x="428" y="1231" type="line"/>
      <point x="428" y="73" type="line"/>
      <point x="241" y="57" type="line"/>
      <point x="241" y="0" type="line"/>
      <point x="899" y="0" type="line"/>
      <point x="899" y="57" type="line"/>
      <point x="779" y="73" type="line"/>
      <point x="779" y="595" type="line"/>
      <point x="813" y="631"/>
      <point x="864" y="662"/>
      <point x="945" y="662" type="curve" smooth="yes"/>
      <point x="1066" y="662"/>
      <point x="1075" y="488"/>
      <point x="1075" y="308" type="curve" smooth="yes"/>
      <point x="1075" y="71" type="line"/>
      <point x="989" y="57" type="line"/>
      <point x="989" y="0" type="line"/>
      <point x="1528" y="0" type="line"/>
      <point x="1528" y="57" type="line"/>
      <point x="1425" y="71" type="line"/>
      <point x="1425" y="355" type="line" smooth="yes"/>
      <point x="1425" y="605"/>
      <point x="1349" y="737"/>
      <point x="1053" y="737" type="curve" smooth="yes"/>
      <point x="946" y="737"/>
      <point x="859" y="701"/>
    </contour>
  </outline>
</glyph>
<glyph name="u-cy.sc" format="1">
  <advance width="1129"/>
  <outline>
    <contour>
      <point x="578" y="1265" type="move" name="top"/>
    </contour>
    <contour>
      <point x="753" y="259" type="curve"/>
      <point x="1021" y="1222" type="line"/>
      <point x="1103" y="1236" type="line"/>
      <point x="1103" y="1292" type="line"/>
      <point x="733" y="1292" type="line"/>
      <point x="733" y="1236" type="line"/>
      <point x="829" y="1221" type="line"/>
      <point x="703" y="542" type="line"/>
      <point x="670" y="363" type="line"/>
      <point x="632" y="540" type="line"/>
      <point x="495" y="1222" type="line"/>
      <point x="613" y="1236" type="line"/>
      <point x="613" y="1292" type="line"/>
      <point x="26" y="1292" type="line"/>
      <point x="26" y="1236" type="line"/>
      <point x="110" y="1221" type="line"/>
      <point x="436" y="287" type="line"/>
      <point x="435" y="150"/>
      <point x="409" y="96"/>
      <point x="306" y="96" type="curve" smooth="yes"/>
      <point x="262" y="96"/>
      <point x="232" y="99"/>
      <point x="188" y="102" type="curve"/>
      <point x="188" y="9" type="line"/>
      <point x="229" y="-7"/>
      <point x="330" y="-20"/>
      <point x="410" y="-20" type="curve" smooth="yes"/>
      <point x="619" y="-20"/>
      <point x="691" y="175"/>
    </contour>
  </outline>
</glyph>
<glyph name="ustraitstroke-cy.sc" format="1">
  <advance width="1167"/>
  <outline>
    <contour>
      <point x="96" y="1292" type="move" name="topleft"/>
    </contour>
    <contour>
      <point x="579" y="473" type="move" name="center"/>
    </contour>
    <contour>
      <point x="581" y="0" type="move" name="bottom"/>
    </contour>
    <contour>
      <point x="637" y="1292" type="move" name="top"/>
    </contour>
    <contour>
      <point x="579" y="473" type="move" name="_center"/>
    </contour>
    <contour>
      <point x="462" y="-144" type="move" name="mark0"/>
    </contour>
    <contour>
      <point x="401" y="74" type="line"/>
      <point x="250" y="57" type="line"/>
      <point x="250" y="0" type="line"/>
      <point x="935" y="0" type="line"/>
      <point x="935" y="57" type="line"/>
      <point x="779" y="74" type="line"/>
      <point x="779" y="486" type="line"/>
      <point x="1052" y="1219" type="line"/>
      <point x="1141" y="1236" type="line"/>
      <point x="1141" y="1292" type="line"/>
      <point x="709" y="1292" type="line"/>
      <point x="709" y="1236" type="line"/>
      <point x="820" y="1222" type="line"/>
      <point x="701" y="688" type="line"/>
      <point x="672" y="539" type="line"/>
      <point x="645" y="688" type="line"/>
      <point x="506" y="1222" type="line"/>
      <point x="588" y="1236" type="line"/>
      <point x="588" y="1292" type="line"/>
      <point x="26" y="1292" type="line"/>
      <point x="26" y="1236" type="line"/>
      <point x="104" y="1218" type="line"/>
      <point x="401" y="484" type="line"/>
    </contour>
    <contour>
      <point x="907" y="518" type="line"/>
      <point x="257" y="518" type="line"/>
      <point x="257" y="448" type="line"/>
      <point x="907" y="448" type="line"/>
    </contour>
  </outline>
</glyph>
<glyph name="yat-cy.sc" format="1">
  <advance width="1366"/>
  <outline>
    <contour>
      <point x="758" y="677" type="curve"/>
      <point x="758" y="1062" type="line"/>
      <point x="943" y="1043" type="line"/>
      <point x="992" y="891" type="line"/>
      <point x="1174" y="891" type="line"/>
      <point x="1144" y="1115" type="line"/>
      <point x="758" y="1115" type="line"/>
      <point x="758" y="1292" type="line"/>
      <point x="890" y="1314" type="line"/>
      <point x="890" y="1362" type="line"/>
      <point x="288" y="1362" type="line"/>
      <point x="288" y="1314" type="line"/>
      <point x="406" y="1293" type="line"/>
      <point x="406" y="1115" type="line"/>
      <point x="37" y="1115" type="line"/>
      <point x="14" y="891" type="line"/>
      <point x="160" y="891" type="line"/>
      <point x="212" y="1043" type="line"/>
      <point x="406" y="1062" type="line"/>
      <point x="406" y="71" type="line"/>
      <point x="251" y="57" type="line"/>
      <point x="251" y="0" type="line"/>
      <point x="608" y="0" type="line" smooth="yes"/>
      <point x="665" y="0"/>
      <point x="875" y="-15"/>
      <point x="901" y="-15" type="curve" smooth="yes"/>
      <point x="1179" y="-15"/>
      <point x="1337" y="128"/>
      <point x="1337" y="353" type="curve" smooth="yes"/>
      <point x="1337" y="536"/>
      <point x="1218" y="696"/>
      <point x="956" y="696" type="curve" smooth="yes"/>
      <point x="843" y="696"/>
      <point x="788" y="684"/>
    </contour>
    <contour>
      <point x="758" y="73" type="curve"/>
      <point x="758" y="615" type="line"/>
      <point x="779" y="623"/>
      <point x="810" y="624"/>
      <point x="848" y="624" type="curve" smooth="yes"/>
      <point x="961" y="624"/>
      <point x="990" y="521"/>
      <point x="990" y="344" type="curve" smooth="yes"/>
      <point x="990" y="155"/>
      <point x="942" y="53"/>
      <point x="799" y="53" type="curve" smooth="yes"/>
      <point x="779" y="53"/>
      <point x="771" y="63"/>
    </contour>
  </outline>
</glyph>
<glyph name="yeru-cy.sc" format="1">
  <advance width="1780"/>
  <outline>
    <contour>
      <point x="890" y="1264" type="move" name="top"/>
    </contour>
    <contour>
      <point x="510" y="791" type="curve"/>
      <point x="510" y="1221" type="line"/>
      <point x="683" y="1240" type="line"/>
      <point x="683" y="1292" type="line"/>
      <point x="52" y="1292" type="line"/>
      <point x="52" y="1240" type="line"/>
      <point x="158" y="1220" type="line"/>
      <point x="158" y="71" type="line"/>
      <point x="50" y="57" type="line"/>
      <point x="50" y="0" type="line"/>
      <point x="298" y="0" type="line" smooth="yes"/>
      <point x="465" y="0"/>
      <point x="548" y="-14"/>
      <point x="683" y="-14" type="curve" smooth="yes"/>
      <point x="908" y="-14"/>
      <point x="1103" y="123"/>
      <point x="1103" y="408" type="curve" smooth="yes"/>
      <point x="1103" y="650"/>
      <point x="982" y="791"/>
      <point x="708" y="791" type="curve" smooth="yes"/>
      <point x="689" y="791"/>
      <point x="509" y="790"/>
    </contour>
    <contour>
      <point x="510" y="69" type="curve"/>
      <point x="510" y="713" type="line"/>
      <point x="505" y="713"/>
      <point x="597" y="711"/>
      <point x="602" y="711" type="curve" smooth="yes"/>
      <point x="706" y="711"/>
      <point x="742" y="611"/>
      <point x="742" y="401" type="curve" smooth="yes"/>
      <point x="742" y="155"/>
      <point x="724" y="54"/>
      <point x="580" y="54" type="curve" smooth="yes"/>
      <point x="557" y="54"/>
      <point x="528" y="61"/>
    </contour>
    <contour>
      <point x="1147" y="1292" type="line"/>
      <point x="1147" y="1236" type="line"/>
      <point x="1257" y="1222" type="line"/>
      <point x="1257" y="73" type="line"/>
      <point x="1149" y="57" type="line"/>
      <point x="1149" y="0" type="line"/>
      <point x="1726" y="0" type="line"/>
      <point x="1726" y="58" type="line"/>
      <point x="1611" y="71" type="line"/>
      <point x="1611" y="1222" type="line"/>
      <point x="1726" y="1236" type="line"/>
      <point x="1726" y="1292" type="line"/>
    </contour>
  </outline>
</glyph>
<glyph name="yusbig-cy.sc" format="1">
  <advance width="1767"/>
  <outline>
    <contour>
      <point x="703" y="601" type="curve" smooth="yes"/>
      <point x="717" y="601" type="line"/>
      <point x="717" y="73" type="line"/>
      <point x="582" y="57" type="line"/>
      <point x="582" y="0" type="line"/>
      <point x="1193" y="0" type="line"/>
      <point x="1193" y="58" type="line"/>
      <point x="1054" y="73" type="line"/>
      <point x="1054" y="601" type="line"/>
      <point x="1066" y="601" type="line" smooth="yes"/>
      <point x="1253" y="601"/>
      <point x="1247" y="0"/>
      <point x="1384" y="0" type="curve" smooth="yes"/>
      <point x="1738" y="0" type="line"/>
      <point x="1738" y="57" type="line"/>
      <point x="1671" y="73" type="line" smooth="yes"/>
      <point x="1599" y="96"/>
      <point x="1572" y="666"/>
      <point x="1219" y="666" type="curve" smooth="yes"/>
      <point x="1104" y="666" type="line"/>
      <point x="1483" y="1231" type="line"/>
      <point x="1475" y="1292" type="line"/>
      <point x="294" y="1292" type="line"/>
      <point x="287" y="1231" type="line"/>
      <point x="665" y="666" type="line"/>
      <point x="551" y="666" type="line" smooth="yes"/>
      <point x="194" y="666"/>
      <point x="171" y="96"/>
      <point x="98" y="73" type="curve" smooth="yes"/>
      <point x="33" y="57" type="line"/>
      <point x="33" y="0" type="line"/>
      <point x="387" y="0" type="line" smooth="yes"/>
      <point x="525" y="0"/>
      <point x="516" y="601"/>
    </contour>
    <contour>
      <point x="606" y="1223" type="line"/>
      <point x="1163" y="1223" type="line"/>
      <point x="883" y="664" type="line"/>
    </contour>
  </outline>
</glyph>
<glyph name="zhe-cy.sc" format="1">
  <advance width="1712"/>
  <outline>
    <contour>
      <point x="855" y="1264" type="move" name="top"/>
    </contour>
    <contour>
      <point x="1668" y="0" type="move" name="bottomright"/>
    </contour>
    <contour>
      <point x="1292" y="649" type="curve"/>
      <point x="1539" y="1222" type="line"/>
      <point x="1679" y="1236" type="line"/>
      <point x="1679" y="1292" type="line"/>
      <point x="1215" y="1292" type="line"/>
      <point x="1215" y="1236" type="line"/>
      <point x="1305" y="1218" type="line"/>
      <point x="1104" y="664" type="line"/>
      <point x="1025" y="664" type="line"/>
      <point x="1025" y="1221" type="line"/>
      <point x="1147" y="1236" type="line"/>
      <point x="1147" y="1292" type="line"/>
      <point x="566" y="1292" type="line"/>
      <point x="566" y="1236" type="line"/>
      <point x="688" y="1221" type="line"/>
      <point x="688" y="664" type="line"/>
      <point x="607" y="664" type="line"/>
      <point x="406" y="1221" type="line"/>
      <point x="496" y="1236" type="line"/>
      <point x="496" y="1292" type="line"/>
      <point x="38" y="1292" type="line"/>
      <point x="38" y="1236" type="line"/>
      <point x="171" y="1222" type="line"/>
      <point x="420" y="655" type="line"/>
      <point x="162" y="580"/>
      <point x="129" y="94"/>
      <point x="54" y="73" type="curve" smooth="yes"/>
      <point x="4" y="57" type="line"/>
      <point x="4" y="0" type="line"/>
      <point x="345" y="0" type="line" smooth="yes"/>
      <point x="484" y="0"/>
      <point x="488" y="601"/>
      <point x="675" y="601" type="curve" smooth="yes"/>
      <point x="688" y="601" type="line"/>
      <point x="688" y="73" type="line"/>
      <point x="554" y="57" type="line"/>
      <point x="554" y="0" type="line"/>
      <point x="1164" y="0" type="line"/>
      <point x="1164" y="58" type="line"/>
      <point x="1025" y="73" type="line"/>
      <point x="1025" y="601" type="line"/>
      <point x="1037" y="601" type="line" smooth="yes"/>
      <point x="1224" y="601"/>
      <point x="1217" y="0"/>
      <point x="1352" y="0" type="curve"/>
      <point x="1709" y="0" type="line"/>
      <point x="1709" y="57" type="line"/>
      <point x="1654" y="73" type="line" smooth="yes"/>
      <point x="1579" y="94"/>
      <point x="1549" y="574"/>
    </contour>
  </outline>
</glyph>
<glyph name="zhedescender-cy.sc" format="1">
  <advance width="1759"/>
  <outline>
    <contour>
      <point x="1292" y="653" type="curve"/>
      <point x="1539" y="1222" type="line"/>
      <point x="1679" y="1236" type="line"/>
      <point x="1679" y="1292" type="line"/>
      <point x="1215" y="1292" type="line"/>
      <point x="1215" y="1236" type="line"/>
      <point x="1305" y="1218" type="line"/>
      <point x="1104" y="664" type="line"/>
      <point x="1025" y="664" type="line"/>
      <point x="1025" y="1221" type="line"/>
      <point x="1147" y="1236" type="line"/>
      <point x="1147" y="1292" type="line"/>
      <point x="566" y="1292" type="line"/>
      <point x="566" y="1236" type="line"/>
      <point x="688" y="1221" type="line"/>
      <point x="688" y="664" type="line"/>
      <point x="607" y="664" type="line"/>
      <point x="406" y="1221" type="line"/>
      <point x="496" y="1236" type="line"/>
      <point x="496" y="1292" type="line"/>
      <point x="38" y="1292" type="line"/>
      <point x="38" y="1236" type="line"/>
      <point x="171" y="1222" type="line"/>
      <point x="420" y="655" type="line"/>
      <point x="162" y="580"/>
      <point x="142" y="96"/>
      <point x="69" y="73" type="curve" smooth="yes"/>
      <point x="4" y="57" type="line"/>
      <point x="4" y="0" type="line"/>
      <point x="357" y="0" type="line" smooth="yes"/>
      <point x="497" y="0"/>
      <point x="488" y="601"/>
      <point x="675" y="601" type="curve" smooth="yes"/>
      <point x="688" y="601" type="line"/>
      <point x="688" y="73" type="line"/>
      <point x="554" y="57" type="line"/>
      <point x="554" y="0" type="line"/>
      <point x="1164" y="0" type="line"/>
      <point x="1164" y="58" type="line"/>
      <point x="1025" y="73" type="line"/>
      <point x="1025" y="601" type="line"/>
      <point x="1037" y="601" type="line" smooth="yes"/>
      <point x="1224" y="601"/>
      <point x="1217" y="0"/>
      <point x="1354" y="0" type="curve" smooth="yes"/>
      <point x="1463" y="0" type="line"/>
      <point x="1494" y="-10"/>
      <point x="1530" y="-274"/>
      <point x="1530" y="-297" type="curve"/>
      <point x="1707" y="-297" type="line"/>
      <point x="1715" y="-296"/>
      <point x="1745" y="116"/>
      <point x="1745" y="73" type="curve"/>
      <point x="1642" y="73" type="line"/>
      <point x="1571" y="108"/>
      <point x="1549" y="577"/>
    </contour>
  </outline>
</glyph>
